<svg id="Layer_1" data-name="Layer 1" xmlns="http://www.w3.org/2000/svg" viewBox="0 0 500 500"><defs><style>.cls-1,.cls-9{fill:#333;}.cls-2,.cls-8{fill:#1a1a1a;}.cls-3{fill:#444;}.cls-4{fill:#b3b3b3;}.cls-5{fill:#4d4d4d;}.cls-6,.cls-7{fill:none;stroke-linecap:round;stroke-miterlimit:10;}.cls-6{stroke:#1a1a1a;stroke-width:2.95px;}.cls-7{stroke:#fea621;stroke-width:6.13px;}.cls-8{opacity:0.5;}.cls-9{opacity:0.51;}</style></defs><g id="bull"><path d="M114.52,64.88l-5.3,40.45,37.13,47.74,21.21-27.43L131.1,95.39Z"/><path d="M292.15,20.76,312.71,56,297,114.4,266.8,97.33l21.88-42Z"/><path class="cls-1" d="M448.71,287.85c0,52.17-29.68,98.67-76,128.78v68.9a1.48,1.48,0,0,1-1.47,1.47H290.45a1.48,1.48,0,0,1-1.47-1.47V448.76a245.95,245.95,0,0,1-81.73,0v36.73a1.48,1.48,0,0,1-1.47,1.47H125a1.48,1.48,0,0,1-1.47-1.47V416.72c-46.39-30.11-76.15-76.65-76.15-128.88,0-90.77,89.85-164.34,200.69-164.34S448.71,197.08,448.71,287.85Z"/><rect class="cls-2" x="123.49" y="466.09" width="83.75" height="20.78" rx="1" ry="1"/><rect class="cls-2" x="288.97" y="466.58" width="83.75" height="20.22" rx="1" ry="1"/><ellipse class="cls-3" cx="342.51" cy="88.51" rx="40.05" ry="23.21" transform="translate(71.95 316.42) rotate(-54.6)"/><ellipse class="cls-3" cx="96.16" cy="149.22" rx="23.21" ry="40.05" transform="translate(-81.18 141.16) rotate(-54.6)"/><path class="cls-4" d="M434.76,245.45c0,20.6-11.23,37.65-25.83,40.37-.84,16.95-11.86,30.34-25.32,30.34-14,0-25.36-14.53-25.36-32.45,0-14.22,7.16-26.32,17.14-30.68a55.41,55.41,0,0,1-.52-7.58c0-22.52,13.41-40.76,29.95-40.76S434.76,222.93,434.76,245.45Z"/><path class="cls-4" d="M150.36,328.45a41.33,41.33,0,0,1,4,17.8,41.81,41.81,0,1,1-59.58-37.85,16.45,16.45,0,0,1-.48-4c0-14.26,18.34-25.83,41-25.83s41,11.57,41,25.83C176.24,315.35,165.52,324.68,150.36,328.45Z"/><circle class="cls-5" cx="248.11" cy="227.43" r="136.81"/><ellipse class="cls-2" cx="271.1" cy="301.1" rx="66.04" ry="46.21" transform="translate(-68.38 79.95) rotate(-14.92)"/><path class="cls-6" d="M170.65,221.68c-2.34-8,6.36-16.38,10.49-19.83a4.3,4.3,0,0,1,4.49-.65c4.76,2.08,14.92,7.4,15.32,15.24"/><path class="cls-6" d="M279.7,190.73c-2.34-8,6.36-16.38,10.49-19.83a4.3,4.3,0,0,1,4.49-.65c4.76,2.08,14.92,7.4,15.32,15.24"/><path class="cls-4" d="M372.72,416.62l5-3.38a15,15,0,0,0-5.81-1.46c-7.16,0-13.32,5.66-16.18,13.84a35.69,35.69,0,0,0-7.49-.77c-11.94,0-21.62,5.59-21.62,12.47s9.68,12.48,21.62,12.48a35,35,0,0,0,8.55-1C360,455.54,365.59,460,372,460c.26,0,.51,0,.77-.05Z"/><circle cx="250.29" cy="305.61" r="9.27"/><circle cx="298.19" cy="292.34" r="9.27"/><path class="cls-7" d="M252.14,308.91c7.73,25.61,51.48,13.54,43.43-13.11"/><path class="cls-8" d="M72.12,312c-3.11-43.46,9.13-83.29,25-114.1-25.5,24.46-40.53,62.2-37.58,103.4,2.15,30.05,13.5,56.93,30.62,77.26C82.79,358.56,73.82,335.74,72.12,312Z"/><path class="cls-9" d="M134.6,250.82c-3.11-43.46,9.13-83.29,25-114.1-25.5,24.46-40.53,62.2-37.58,103.4,2.15,30.05,13.5,56.93,30.62,77.26C145.27,297.39,136.3,274.58,134.6,250.82Z"/></g></svg>