<svg id="Layer_1" data-name="Layer 1" xmlns="http://www.w3.org/2000/svg" viewBox="0 0 500 500"><defs><style>.cls-1{fill:#e3e2da;}.cls-2{fill:#eca235;}.cls-3{fill:#9c8063;}.cls-4{fill:#eda235;}.cls-5{fill:#f3d8b3;}.cls-6{fill:#fea621;}.cls-7{fill:#4d4d4d;}.cls-8{fill:#f299bc;}.cls-12,.cls-9{fill:none;stroke:#1a1a1a;stroke-linecap:round;stroke-miterlimit:10;}.cls-9{stroke-width:3.17px;}.cls-10{fill:#cccbc8;}.cls-11{fill:#ec95ba;}.cls-12{stroke-width:4.36px;}.cls-13{fill:#c6862f;}</style></defs><g id="cat"><path class="cls-1" d="M439.8,323.75c1.41,5,0,10.69-3.53,13.89a10.54,10.54,0,0,1-6,2.56A17.11,17.11,0,0,0,424,342.3a17.42,17.42,0,0,0-6.6,5.92c-.87,1.47-2.69,4.54,1.2,20.68a83.74,83.74,0,0,0,3,10.16,22.12,22.12,0,0,1,1.49,6.08c.46,4.07,1.68,14.88-4.7,24.3-5.79,8.52-14.72,11.37-20.65,13.25a52.25,52.25,0,0,1-15.93,2.36c-2.39,0-4.48-.13-6.17-.24a73.82,73.82,0,0,1-11.87-1.74l-1.3-.32,1.57-22.83,1.66.22a84.56,84.56,0,0,0,18.1.33,37.07,37.07,0,0,0,8.76-1.6,7.55,7.55,0,0,0,2.66-1.44c2.17-1.87,3.7-5.79,4.59-11.67.92-6.22.47-10.48-.33-18.21l-.36-3.61c-1.25-12.44-1.87-18.68-1.36-22.89l.13-1.06c.54-4.45,1-8.66,3.32-13.13a25.92,25.92,0,0,1,6-8c1.06-.95,10.75-9.12,21.71-5.43C434.58,315.38,438.46,319,439.8,323.75Zm-4.61,12.73c3.13-2.87,4.29-8,3.09-12.3-1.85-6.51-8.5-8.76-9.91-9.23-10.15-3.4-19.3,4.39-20.16,5.13l-1.47-.59a24,24,0,0,0-1,3.2s0,0,0,0a26.46,26.46,0,0,0-3.1,4.89c-2.33,4.54-2.71,8.87-3.29,13.66-.49,4,.13,10.18,1.38,22.53,1,10.18,1.77,14.87.68,22.21-1.33,8.9-3.86,11.54-5.13,12.63-1.09.93-3.42,2.6-12.3,3.42a84.76,84.76,0,0,1-18.43-.35l-1.38,19.81a70.28,70.28,0,0,0,11.62,1.71c4.69.3,12.59.79,21.52-2,5.91-1.88,14.33-4.58,19.81-12.65,6.06-8.93,4.91-19.14,4.43-23.23-.11-.95-.22-1.71-.36-2.37a.37.37,0,0,0,.13,0l-.51-1.41-.21-.62a4.82,4.82,0,0,0-.22-.62v0a109.49,109.49,0,0,1-5.6-24.21,5.53,5.53,0,0,0,.36-.76,8.63,8.63,0,0,0,0-5.68,8.14,8.14,0,0,1,.93-2.18,19.1,19.1,0,0,1,7.17-6.49C429,337.69,431.92,339.49,435.2,336.48Z"/><path class="cls-1" d="M438.28,324.18c1.2,4.29,0,9.44-3.09,12.3s-6.24,1.2-12,4.43a19.1,19.1,0,0,0-7.17,6.49,8.14,8.14,0,0,0-.93,2.18c-.22-.74-.49-1.5-.81-2.3.13-.25.25-.47.38-.7a22.19,22.19,0,0,1,15-9.52c1.85-.33,3.07-.54,4.42-1.77,2.6-2.39,3.7-6.89,2.61-10.7s-4.2-6.57-8.88-8.15c-8.6-2.88-16.66,3.2-18.3,4.56a3.08,3.08,0,0,1,.13-.35l-1.47-.59c.85-.74,10-8.53,20.16-5.13C429.78,315.43,436.43,317.68,438.28,324.18Z"/><path class="cls-2" d="M436.75,324.61c1.09,3.82,0,8.31-2.61,10.7-1.35,1.23-2.56,1.44-4.42,1.77a22.19,22.19,0,0,0-15,9.52c-.13.22-.25.44-.38.7-.52-1.25-1.14-2.56-1.79-3.93-3-6.29-6.36-13.39-3-22.36,1.65-1.36,9.71-7.44,18.3-4.56C432.55,318,435.72,320.92,436.75,324.61Z"/><path class="cls-1" d="M421.53,385.31c.47,4.08,1.63,14.3-4.43,23.23-5.48,8.07-13.9,10.77-19.81,12.65-8.93,2.83-16.83,2.34-21.52,2a70.28,70.28,0,0,1-11.62-1.71l1.38-19.81a84.76,84.76,0,0,0,18.43.35c8.88-.82,11.21-2.49,12.3-3.42,1.27-1.09,3.8-3.74,5.13-12.63,1.09-7.35.33-12-.68-22.21-1.25-12.35-1.87-18.52-1.38-22.53.59-4.8,1-9.12,3.29-13.66a26.46,26.46,0,0,1,3.1-4.89,20.78,20.78,0,0,0-.63,3.67c-.46.76-.79,1.42-1.06,1.95-2,3.94-2.49,7.69-3,12l-.14,1.08c-.46,3.85.16,10,1.38,22.18l0,.28.33,3.31c.81,7.73,1.3,12.4.32,19-1.5,10-4.64,12.73-5.67,13.62-1.55,1.35-4.46,3-13.17,3.78-2.53.24-5.1.35-7.68.35a90.25,90.25,0,0,1-9.45-.51l-1.16,16.8a67.4,67.4,0,0,0,10,1.38c4.59.28,12.3.78,20.93-2,5.84-1.85,13.82-4.39,19-12,5.73-8.44,4.65-18,4.18-22.15a23.65,23.65,0,0,0-.36-2.36.54.54,0,0,0,.16,0,4.23,4.23,0,0,0,1.41-.22C421.31,383.6,421.42,384.36,421.53,385.31Z"/><path class="cls-1" d="M420.79,381.5l.51,1.41a.37.37,0,0,1-.13,0A14.56,14.56,0,0,0,420.79,381.5Z"/><path class="cls-1" d="M420.79,381.5a14.56,14.56,0,0,1,.38,1.44,4.23,4.23,0,0,1-1.41.22.54.54,0,0,1-.16,0,23.33,23.33,0,0,0-.95-3,2.9,2.9,0,0,1-.13-.4,2.5,2.5,0,0,0,1.71.17l.13.33v0l.22.62Z"/><path class="cls-1" d="M420.58,380.88l-.22-.62A4.82,4.82,0,0,1,420.58,380.88Z"/><path class="cls-1" d="M420.36,380.25l-.13-.33a2.5,2.5,0,0,1-1.71-.17,83.43,83.43,0,0,1-3-10.1,98.17,98.17,0,0,1-2.22-11.78,7.23,7.23,0,0,0,1.41-1.82,109.49,109.49,0,0,0,5.6,24.21Z"/><path class="cls-1" d="M420,385.5c.47,4.1,1.55,13.71-4.18,22.15-5.16,7.63-13.14,10.16-19,12-8.63,2.75-16.34,2.26-20.93,2a67.4,67.4,0,0,1-10-1.38l1.16-16.8a90.25,90.25,0,0,0,9.45.51c2.58,0,5.15-.11,7.68-.35,8.71-.79,11.62-2.44,13.17-3.78,1-.89,4.16-3.59,5.67-13.62,1-6.6.49-11.27-.32-19l-.33-3.31,1.44-.14a14.57,14.57,0,0,0,1,4.23c2.45,6.51,9.47,15,14.87,15.14A23.65,23.65,0,0,1,420,385.5Z"/><path class="cls-3" d="M418.65,380.14a23.33,23.33,0,0,1,.95,3c-5.4-.16-12.41-8.63-14.87-15.14a14.57,14.57,0,0,1-1-4.23c-.22-3.91,2.14-5.35,3.39-5.86,2.8-1.09,4.45-2.34,5-3.82a4.14,4.14,0,0,0,.27-1.49l.66,0a30.09,30.09,0,0,0,.24,5.22,15.28,15.28,0,0,1-5.05,3c-2.17.84-1.31,4.12-.6,6,2.2,5.83,7.57,11.61,10.83,12.86A2.9,2.9,0,0,0,418.65,380.14Z"/><path class="cls-3" d="M415.56,369.64a83.43,83.43,0,0,0,3,10.1c-3.26-1.25-8.63-7-10.83-12.86-.71-1.88-1.57-5.16.6-6a15.28,15.28,0,0,0,5.05-3A98.17,98.17,0,0,0,415.56,369.64Z"/><path class="cls-1" d="M415.13,349.59a8.63,8.63,0,0,1,0,5.68,5.53,5.53,0,0,1-.36.76A18.5,18.5,0,0,1,415.13,349.59Z"/><path class="cls-1" d="M415.13,349.59a18.5,18.5,0,0,0-.38,6.44,7.23,7.23,0,0,1-1.41,1.82,30.09,30.09,0,0,1-.24-5.22,12.11,12.11,0,0,1,1.22-5.34C414.64,348.09,414.91,348.85,415.13,349.59Z"/><path class="cls-1" d="M414.33,347.3a12.11,12.11,0,0,0-1.22,5.34l-.66,0c0-2.12-1.3-4.83-2.75-7.88-2.3-4.81-5.22-11-4.59-18.35a21.09,21.09,0,0,1,4.16-5.11l.3-.25c-3.39,9,0,16.07,3,22.36C413.19,344.73,413.8,346,414.33,347.3Z"/><path class="cls-1" d="M412.44,352.62a4.14,4.14,0,0,1-.27,1.49c-.59,1.47-2.23,2.72-5,3.82-1.25.51-3.61,1.95-3.39,5.86l-1.44.14,0-.28c-1.22-12.21-1.84-18.33-1.38-22.18l.14-1.08c.51-4.35,1-8.11,3-12,.27-.52.6-1.19,1.06-1.95-.63,7.35,2.3,13.54,4.59,18.35C411.14,347.79,412.44,350.5,412.44,352.62Z"/><path class="cls-1" d="M409.69,320.67a3.08,3.08,0,0,0-.13.35l-.3.25a21.09,21.09,0,0,0-4.16,5.11,20.78,20.78,0,0,1,.63-3.67s0,0,0,0a21.06,21.06,0,0,1,2.49-2.61Z"/><path class="cls-1" d="M406.74,319.5l1.47.59a21.06,21.06,0,0,0-2.49,2.61A24,24,0,0,1,406.74,319.5Z"/><path class="cls-3" d="M372,426.85c0,30.41-11.27,55.26-25.42,56.81v1.54H195.38c-25.7,0-46.53-14.73-46.53-32.89V325.66c0-34.3,44.27-62.11,98.88-62.11s98.88,27.81,98.88,62.11V355c0,7.14,3.26,14.09,9.37,19.78C365.41,383.54,372,403.56,372,426.85Z"/><path class="cls-4" d="M346.62,324.56V485.2h-64V350.94H211.58V485.2H148.84V324.56c0-.63,0-1.23.07-1.84,2.11-39.12,45.52-70.35,98.83-70.35s96.69,31.23,98.81,70.35C346.57,323.32,346.59,323.93,346.62,324.56Z"/><path class="cls-5" d="M211.57,487c0-.07,0-.14,0-.21,0-14.17-14.92-25.66-33.32-25.66s-33.32,11.49-33.32,25.66c0,.07,0,.14,0,.21Z"/><path class="cls-5" d="M348.39,487c0-.07,0-.14,0-.21,0-14.17-14.92-25.66-33.32-25.66s-33.32,11.49-33.32,25.66c0,.07,0,.14,0,.21Z"/><ellipse class="cls-3" cx="247.42" cy="350.08" rx="35.84" ry="27.36"/><path class="cls-1" d="M387.73,172.75a77,77,0,0,1,8.74,22.12C409.76,254,349.72,318,262.62,337.61S93.83,325,80.54,265.92c-5.67-25.2,1.92-52.58,21.38-77.14.16-5.39-.56-16.62-1-17.9l-27.36-81c-1.43-4.23-.6-8.31,2.18-10.91s6.9-3.13,11-1.41l54.68,22.67A129,129,0,0,1,202,66.72l.31,1.3c0,.54,0,1.26,0,2.13a125.76,125.76,0,0,0-59.26,33.27l-.82.8L85.49,80.68a8.08,8.08,0,0,0-4.84-.56,5.44,5.44,0,0,0-2.53,1.31c-1.79,1.67-2.26,4.41-1.27,7.31l27.37,81.06c.67,2.06,1.31,14.83,1.1,19.68l0,.57-.34.43c-19.06,23.86-26.53,50.38-21.06,74.7,12.88,57.28,92.73,88.27,178,69.1S406,252.9,393.12,195.62A73.85,73.85,0,0,0,385.05,175l1.53-1.56Z"/><path class="cls-1" d="M387.73,172.75l-1.15.66-2.45-2.4-.92.93c-8-12.51-19.91-23.3-35.36-31.83l-.48-.26-.23-.49a128,128,0,0,0-23.23-33.2l-.39-.42L313.43,22.81c-.38-3.08-2-5.36-4.36-6.12s-5,.19-7.07,2.47L256.87,68.74l-.87.2-.39-.07a124.45,124.45,0,0,0-49.85.53c0-.56,0-1,0-1.42l-3.43.05-.31-1.3c.55-.14,1.1-.26,1.65-.39a127.86,127.86,0,0,1,51.67-1l44.13-48.47c3-3.3,7-4.58,10.65-3.41s6.18,4.51,6.72,9l10,81.78A132.44,132.44,0,0,1,350,137.38C366.79,146.75,379.54,158.76,387.73,172.75Z"/><path class="cls-1" d="M384.13,171l2.45,2.4L385.05,175c-.58-1-1.2-2-1.84-3Z"/><path class="cls-1" d="M385.05,175a73.85,73.85,0,0,1,8.07,20.66c12.88,57.28-46,119.47-131.25,138.64s-165.11-11.82-178-69.1c-5.47-24.32,2-50.84,21.06-74.7l.34-.43,0-.57c.21-4.84-.43-17.61-1.1-19.68L76.85,88.73c-1-2.91-.51-5.65,1.27-7.31a5.44,5.44,0,0,1,2.53-1.31,8.08,8.08,0,0,1,4.84.56l56.77,23.55.82-.8a125.76,125.76,0,0,1,59.26-33.27A201.81,201.81,0,0,0,204,93.61c1.41,10.17,4,29.11,13.78,50.28a139.5,139.5,0,0,0,38.38,50c8.48,6.79,24.28,19.44,46.49,22.43a51.77,51.77,0,0,0,18.23-1C348.91,208.94,376.3,183.63,385.05,175Z"/><path class="cls-1" d="M383.21,171.94c.65,1,1.26,2,1.84,3-8.75,8.66-36.14,34-64.16,40.27a51.77,51.77,0,0,1-18.23,1c-22.21-3-38-15.65-46.49-22.43a139.5,139.5,0,0,1-38.38-50C208,122.72,205.42,103.78,204,93.61a201.81,201.81,0,0,1-1.65-23.45c.68-.17,1.37-.33,2.05-.48.45-.1.9-.2,1.36-.29a199.62,199.62,0,0,0,1.65,23.75c1.37,10,3.92,28.6,13.48,49.31a136,136,0,0,0,37.35,48.67c8.29,6.64,23.61,18.9,44.86,21.76C335.6,217.27,373.75,181.43,383.21,171.94Z"/><path class="cls-1" d="M347.85,140.11c15.45,8.53,27.38,19.32,35.36,31.83-9.46,9.49-47.61,45.34-80.1,40.94-21.25-2.86-36.57-15.13-44.86-21.76a136,136,0,0,1-37.35-48.67c-9.56-20.71-12.11-39.32-13.48-49.31a199.62,199.62,0,0,1-1.65-23.75,124.45,124.45,0,0,1,49.85-.53l.39.07.87-.2L302,19.16c2.09-2.28,4.73-3.21,7.07-2.47s4,3,4.36,6.12l10.09,82.92.39.42a128,128,0,0,1,23.23,33.2l.23.49Z"/><path class="cls-1" d="M202.31,68l3.43-.05c0,.39,0,.86,0,1.42-.46.08-.91.19-1.36.29-.69.15-1.37.31-2.05.48C202.33,69.28,202.31,68.57,202.31,68Z"/><path class="cls-1" d="M350,137.36c25.09,14,41.16,33.88,46.47,57.51C409.76,254,349.72,318,262.62,337.61S93.83,325,80.54,265.92a78.61,78.61,0,0,1,.3-35l1.52.36,1.79.55a74.88,74.88,0,0,0-.27,33.34c12.88,57.26,92.73,88.27,178,69.1S406,252.89,393.12,195.62c-5.13-22.79-20.78-42-45.27-55.51l-.48-.26-.23-.49a127.93,127.93,0,0,0-23.23-33.22l-.39-.4L313.43,22.81c-.38-3.08-2-5.36-4.36-6.12s-5,.17-7.07,2.47L256.87,68.72l-.87.2-.38-.05a124.63,124.63,0,0,0-51.21.82,123.08,123.08,0,0,0-16.22,4.82c-.31-.69-.64-1.37-1-2l-.41-1.1a128.93,128.93,0,0,1,68.52-6l44.13-48.47c3-3.31,7-4.6,10.65-3.43s6.18,4.53,6.73,9l10,81.78A132.13,132.13,0,0,1,350,137.36Z"/><path class="cls-1" d="M347.85,140.11c24.49,13.52,40.14,32.72,45.27,55.51,12.88,57.26-46,119.47-131.25,138.64s-165.11-11.84-178-69.1a74.88,74.88,0,0,1,.27-33.34c9,2.63,30,7.37,51.54,2.54a70.44,70.44,0,0,0,20.88-8.24c18.33-11,27.26-27,32.09-35.68a115.59,115.59,0,0,0,14.15-53.8c.3-20.29-4.83-36-7.61-44.46a154.08,154.08,0,0,0-7-17.68,123.08,123.08,0,0,1,16.22-4.82,124.63,124.63,0,0,1,51.21-.82l.38.05.87-.2L302,19.16c2.08-2.3,4.73-3.21,7.07-2.47s4,3,4.36,6.12l10.09,82.92.39.4a127.93,127.93,0,0,1,23.23,33.22l.23.49Z"/><path class="cls-6" d="M195.2,92.18c2.78,8.44,7.91,24.17,7.61,44.46a115.59,115.59,0,0,1-14.15,53.8c-4.83,8.68-13.76,24.67-32.09,35.68a70.44,70.44,0,0,1-20.88,8.24c-21.51,4.84-42.52.09-51.54-2.54.24-1.11.52-2.22.83-3.33,11.51,3.37,43.57,10.46,69.82-5.32,17.54-10.53,26.18-26,30.82-34.34a112,112,0,0,0,13.76-52.25c.29-19.71-4.74-35.07-7.44-43.34a151.83,151.83,0,0,0-7-17.52c1.06-.43,2.13-.85,3.2-1.23A154.08,154.08,0,0,1,195.2,92.18Z"/><path class="cls-6" d="M187.22,72.45c.33.68.66,1.36,1,2-1.07.38-2.14.8-3.2,1.23-.29-.58-.56-1.17-.85-1.76Z"/><path class="cls-6" d="M191.94,93.25c2.7,8.26,7.74,23.63,7.44,43.34a112,112,0,0,1-13.76,52.25c-4.65,8.32-13.29,23.81-30.82,34.34C128.55,239,96.49,231.87,85,228.5c3.5-12.95,10.21-25.84,20-38l.34-.43,0-.57c.21-4.84-.43-17.63-1.11-19.69l-27.36-81c-1-2.92-.51-5.65,1.27-7.31a5.44,5.44,0,0,1,2.53-1.31,8,8,0,0,1,4.84.56l56.77,23.55.82-.82A125.45,125.45,0,0,1,185,75.73,151.83,151.83,0,0,1,191.94,93.25Z"/><path class="cls-6" d="M186.81,71.35l.41,1.1L184.13,74c.29.58.56,1.17.85,1.76a125.45,125.45,0,0,0-41.9,27.68l-.82.82L85.49,80.68a8,8,0,0,0-4.84-.56,5.44,5.44,0,0,0-2.53,1.31c-1.79,1.67-2.26,4.39-1.27,7.31l27.36,81c.67,2.06,1.32,14.85,1.11,19.69l0,.57-.34.43c-9.75,12.19-16.46,25.08-20,38-.58-.17-1.13-.33-1.6-.48l-1,3.27-1.52-.36c3.29-14.34,10.4-28.66,21.08-42.15.15-5.41-.56-16.62-1-17.9l-27.36-81c-1.43-4.25-.6-8.31,2.18-10.91s6.9-3.13,11-1.42l54.68,22.68A128.93,128.93,0,0,1,186.81,71.35Z"/><path class="cls-6" d="M85,228.5c-.31,1.11-.59,2.22-.83,3.33l-1.79-.55,1-3.27C83.86,228.17,84.4,228.33,85,228.5Z"/><path class="cls-7" d="M252.9,226.65a11,11,0,0,1,2.44,10.85L250.52,253a11.13,11.13,0,0,1-18.81,4.23l-11-11.93a11.13,11.13,0,0,1,5.75-18.41l15.84-3.56A11,11,0,0,1,252.9,226.65Zm-.83,9.83a7.71,7.71,0,0,0-9-9.81l-15.84,3.56a7.71,7.71,0,0,0-4,12.73l11,11.93a7.71,7.71,0,0,0,13-2.93Z"/><path class="cls-7" d="M250.38,229a7.63,7.63,0,0,1,1.69,7.51L247.25,252a7.71,7.71,0,0,1-13,2.93l-11-11.93a7.71,7.71,0,0,1,4-12.73L243,226.67A7.62,7.62,0,0,1,250.38,229Z"/><rect class="cls-1" x="240.74" y="258.82" width="3.43" height="4.53" transform="translate(-51.38 59.56) rotate(-12.67)"/><path class="cls-1" d="M261.88,276.79a14.18,14.18,0,0,1-9.18-.86,24.81,24.81,0,0,1-12.42-16.68l3.34-.75a21.39,21.39,0,0,0,10.67,14.4,11.09,11.09,0,0,0,8.67-.06,5.38,5.38,0,0,0,3.26-3.73l3.34.77A8.77,8.77,0,0,1,264.4,276,12.84,12.84,0,0,1,261.88,276.79Z"/><path class="cls-1" d="M232.11,285.81a12.87,12.87,0,0,1-2.64.32,8.76,8.76,0,0,1-7.28-3.28l2.69-2.12a5.38,5.38,0,0,0,4.54,2A11.11,11.11,0,0,0,237.3,279a21.4,21.4,0,0,0,3.48-17.58l3.34-.75A24.81,24.81,0,0,1,240,281.1,14.19,14.19,0,0,1,232.11,285.81Z"/><path class="cls-1" d="M245.1,269.06c4.33-1,8.79,3,10.16,9.07s-1,11.58-5.29,12.56-8.78-3-10.14-9.09S240.78,270,245.1,269.06Zm6.81,9.82c-.91-4-3.68-7-6.06-6.47s-3.6,4.39-2.69,8.44,3.69,7,6,6.49S252.82,282.92,251.91,278.88Z"/><path class="cls-1" d="M245.85,272.4c2.37-.53,5.15,2.43,6.06,6.47s-.33,7.93-2.7,8.46-5.14-2.45-6-6.49S243.49,272.93,245.85,272.4Z"/><path class="cls-1" d="M148.7,191.79c-3.72-8.71,4-18.73,8.86-23.93a6.23,6.23,0,0,1,6.36-1.7c6.49,2,17.62,6.57,19.13,15.41l-3.38.58c-1.24-7.29-12.12-11.31-16.74-12.71a2.82,2.82,0,0,0-2.88.77c-3.48,3.69-11.26,13.05-8.2,20.23Z"/><path class="cls-1" d="M246.55,169.78c-3.72-8.71,4-18.73,8.86-23.93a6.23,6.23,0,0,1,6.36-1.7c6.49,2,17.62,6.57,19.13,15.41l-3.38.58c-1.24-7.29-12.12-11.31-16.74-12.71a2.82,2.82,0,0,0-2.88.77c-3.48,3.69-11.26,13.06-8.2,20.23Z"/><path class="cls-8" d="M303.55,32.4c3.4,1,5.74,4,6.31,8.3l3.61,27.53a15,15,0,0,1-4.79,13,9.84,9.84,0,0,1-4.28,2.23,7.9,7.9,0,0,1-3.87-.08l-21.11-6a8.77,8.77,0,0,1-5.81-6.09,14.94,14.94,0,0,1,2.73-13.58l17.5-21.57C296.51,32.84,300.15,31.44,303.55,32.4Zm2.92,8.74c-.38-2.85-1.82-4.88-3.85-5.46a4.55,4.55,0,0,0-2.2,0,7.3,7.3,0,0,0-3.91,2.67L279,59.89a11.64,11.64,0,0,0-2.13,10.39,5.51,5.51,0,0,0,3.48,3.82l21.13,6a5.51,5.51,0,0,0,5-1.43,11.67,11.67,0,0,0,3.63-10Z"/><path class="cls-8" d="M302.62,35.68c2,.58,3.47,2.61,3.85,5.46l3.61,27.53a11.67,11.67,0,0,1-3.63,10,5.51,5.51,0,0,1-5,1.43l-21.13-6a5.51,5.51,0,0,1-3.48-3.82A11.64,11.64,0,0,1,279,59.89l17.5-21.57a7.3,7.3,0,0,1,3.91-2.67A4.55,4.55,0,0,1,302.62,35.68Z"/><path class="cls-8" d="M127.22,106.75a15,15,0,0,1,8.28,11.12,8.77,8.77,0,0,1-2.67,8l-16.52,14.43a7.92,7.92,0,0,1-3.46,1.74,9.94,9.94,0,0,1-4.82-.18,15,15,0,0,1-9.9-9.7L89.63,105.7c-1.32-4.06-.51-7.88,2.13-10.2s6.55-2.6,10.41-.76Zm4.87,11.57a11.59,11.59,0,0,0-6.35-8.48l-25-12A7.31,7.31,0,0,0,96,97.1a4.54,4.54,0,0,0-2,1c-1.6,1.4-2,3.84-1.14,6.56l8.53,26.44a11.55,11.55,0,0,0,7.54,7.44,5.45,5.45,0,0,0,5.1-.83l16.52-14.43A5.45,5.45,0,0,0,132.08,118.32Z"/><path class="cls-8" d="M125.73,109.84a11.59,11.59,0,0,1,6.35,8.48,5.45,5.45,0,0,1-1.51,4.94L114.06,137.7a5.45,5.45,0,0,1-5.1.83,11.55,11.55,0,0,1-7.54-7.44l-8.53-26.44c-.88-2.72-.46-5.17,1.14-6.56a4.54,4.54,0,0,1,2-1,7.31,7.31,0,0,1,4.7.74Z"/><path class="cls-3" d="M213.43,348.67c0,.13,0,.25,0,.38,0,25.7,2,46.53,21,46.53,11.07,0,29.08-6.15,39.14-17.18,7.16-7.85,8.52-18.66,8.52-29.34,0-.13,0-.25,0-.38Z"/><line class="cls-9" x1="183.4" y1="241.27" x2="207.82" y2="246.93"/><line class="cls-9" x1="208.1" y1="247.62" x2="194.34" y2="268.58"/><line class="cls-9" x1="205.17" y1="248.39" x2="187.91" y2="255.31"/><line class="cls-9" x1="282.26" y1="219.59" x2="267.2" y2="239.64"/><line class="cls-9" x1="267.44" y1="240.35" x2="291.45" y2="247.54"/><line class="cls-9" x1="270.18" y1="239.05" x2="287.84" y2="233.24"/><path class="cls-10" d="M101.52,283.88C90.16,265.5,86.43,245.41,90,229.83c-7.35,14.47-5.08,36.7,7.26,56.67s31.2,32,47.42,31.86C129.17,314.61,112.87,302.27,101.52,283.88Z"/><rect class="cls-6" x="139.07" y="159.61" width="45.29" height="38.47" transform="translate(-75.6 136.23) rotate(-37.7)"/><path class="cls-9" d="M151.58,193.45c-.67-3.72,1.74-20.55,9.94-24,4.73-2,15.95,5.71,20.27,12.24"/><path class="cls-9" d="M249.93,164.92c-.28-3.77,3.86-20.26,12.36-22.83,4.91-1.48,15.27,7.33,18.9,14.27"/><ellipse class="cls-11" cx="247.73" cy="290.13" rx="5.62" ry="8.95" transform="translate(-49.29 50.7) rotate(-10.63)"/><path class="cls-12" d="M241.72,258.29c2.12,14.59,12.12,33.65-13.92,26.29"/><path class="cls-12" d="M243.38,257.5c2.5,14.53-1.11,35.75,21.37,20.69"/><path class="cls-7" d="M251.53,254.33a10.6,10.6,0,0,1-17.81,4.41l-6.42-6.67-6.42-6.67A10.6,10.6,0,0,1,226,227.76l9-2.23,9-2.23a10.6,10.6,0,0,1,12.73,13.22l-2.57,8.9Z"/><rect class="cls-13" x="152.14" y="337.82" width="5.08" height="124.5" rx="1.61" ry="1.61"/></g></svg>