<svg id="Layer_1" data-name="Layer 1" xmlns="http://www.w3.org/2000/svg" viewBox="0 0 500 500"><defs><style>.cls-1{fill:#df4231;}.cls-2{fill:#292728;}.cls-3{fill:#ff8000;}.cls-4{fill:#b7342a;}.cls-5{fill:#e39a57;}.cls-6{fill:none;stroke:#1a1a1a;stroke-miterlimit:10;stroke-width:2.8px;}.cls-7{fill:#b77946;}</style></defs><g id="chicken"><path class="cls-1" d="M262.81,108.91c1.32,22.36-3.68,40.71-11.15,41-4.79.19-9.38-7.09-12.42-18.2-1.64,14-5.91,23.49-12,24.16-5.66.67-11.7-6.42-16.68-18.13-1.37,12.77-5.27,21.24-11.45,22.67-12.79,3-30.31-25.88-39.2-64.33s-5.79-72.09,7-75c10.72-2.48,24.79,17.35,34.31,46.49,1.76-13.31,6-22.17,11.83-22.85,8.92-1,18.81,17.18,23.79,42.26,1.8-10.72,5.51-17.83,10.13-18C254.42,68.66,261.54,86.53,262.81,108.91Z"/><path class="cls-2" d="M331.86,341.13a110.47,110.47,0,0,1,19.06-23.37c6.73-6.26,11.72-10.9,18.76-13.22,17.53-5.78,35.57,6.88,40,10.15l-14.45,4c10.08,7.45,12.69,14.74,13.53,18.45.59,2.61.78,5.56,0,5.84-1.1.4-2.64-5-7.69-7.69-4-2.13-8.84-1.76-9.23-.62-.44,1.31,5.24,2.53,8.3,8.3a14.61,14.61,0,0,1,1.54,8.3c-.31,2.53-1.43,5.58-2.46,5.54s-.71-3.89-3.38-7.07c-2.84-3.38-8-4.6-8.92-3.38s2.92,3.77,4.92,9.53c2.73,7.86.25,16.53-1.23,16.6-.79,0-.86-2.37-2.77-6.15-1.08-2.13-4.35-8.62-11.38-11.68A20.06,20.06,0,0,0,350,365.12Z"/><path class="cls-3" d="M228.16,416.16v36.28a26.89,26.89,0,0,0-6.13,1.93,29.57,29.57,0,0,0-8.4,5.89c-9,8.78-12.52,18.68-14.21,18.1-1-.35-.81-4.08,0-7.24,2.31-9,9.71-13.44,8.94-14.52-.69-.92-6.66,1.93-10.9,4.47-3.89,2.39-5.59,4.08-6.12,3.62-.69-.58,1-4.89,4.47-7.78,4.35-3.66,9.48-3.39,9.48-4.2s-4.7-1.85-9.48-.85c-2.85.62-5.16,1.81-5.59,1.12-.31-.46.46-1.62,1.15-2.74a11.69,11.69,0,0,1,1.08-1.43c1.19-1.35,6.47-2.7,13.67-2.54,5-2.47,10-4.93,15.06-7.4V416.16Z"/><path class="cls-3" d="M303.86,416.16v36.28a26.89,26.89,0,0,0-6.13,1.93,29.57,29.57,0,0,0-8.4,5.89c-9,8.78-12.52,18.68-14.21,18.1-1-.35-.81-4.08,0-7.24,2.31-9,9.71-13.44,8.94-14.52-.69-.92-6.66,1.93-10.9,4.47-3.89,2.39-5.59,4.08-6.12,3.62-.69-.58,1-4.89,4.47-7.78,4.35-3.66,9.48-3.39,9.48-4.2s-4.7-1.85-9.48-.85c-2.85.62-5.16,1.81-5.59,1.12-.31-.46.46-1.62,1.15-2.74a11.69,11.69,0,0,1,1.08-1.43c1.19-1.35,6.47-2.7,13.67-2.54,5-2.47,10-4.93,15.06-7.4V416.16Z"/><ellipse class="cls-1" cx="262.14" cy="369.56" rx="87.76" ry="60.17"/><path class="cls-4" d="M183.29,371.7a39.45,39.45,0,0,1,15-33,35.41,35.41,0,0,0,2.84,64.51A39.45,39.45,0,0,1,183.29,371.7Z"/><path class="cls-4" d="M165,74.56c-3.11-19-1-36.5,4.89-47.69-8,8.93-11.59,27.64-8.2,48.24s12.77,37.18,23.2,43.08C175.75,109.45,168.09,93.52,165,74.56Z"/><path class="cls-5" d="M339.15,302.05a12.61,12.61,0,0,1,2.33,4.28c1.74,5.47-.33,11-4.59,12.32-3.33,1.06-7-.73-9.28-4.14-2.41,2.27-4.93,4.46-7.6,6.57a13,13,0,0,1,1.14,2.56c1.74,5.47-.32,11-4.59,12.35-3.7,1.17-7.84-1.17-10-5.39-3,1.89-6.06,3.69-9.28,5.36a12.58,12.58,0,0,1,1.84,3.67c1.73,5.44-.33,11-4.59,12.32s-9.13-2-10.86-7.42a14.43,14.43,0,0,1-.45-1.89c-3.17,1.36-6.41,2.59-9.73,3.76a13.9,13.9,0,0,1,1.28,2.84c1.73,5.45-.33,11-4.59,12.32s-9.13-2-10.86-7.42a13.42,13.42,0,0,1-.6-3.38c-3.14.82-6.26,1.48-9.35,2.08a13.82,13.82,0,0,1,1,2.27c1.73,5.44-.33,11-4.59,12.32s-9.13-2-10.86-7.42a13,13,0,0,1-.57-5c-46.29,4.38-86.2-12.84-96.36-44.86-7-22.16,1.71-46.74,21.11-67.45C138.67,175.2,151.66,111.74,188.7,100c36.75-11.66,83.51,31.9,105.95,97.88,29.53,5.13,52.35,20.5,59.68,43.6C360.59,261.21,354.33,282.89,339.15,302.05Z"/><path class="cls-1" d="M243.66,283.21a30.33,30.33,0,0,1,4.29,13.52c.52,8.78-3.49,12.87-.82,17.93,2.4,4.54,8.83,7.32,12,5.5,4.53-2.61,2.35-14.8,2.74-14.82s-1.27,18.6,6.12,22.24c3.66,1.8,9.38-.17,11.83-3.75,4.2-6.13-1.79-16.11-8.84-27.88-5.38-9-8.8-14.48-15.19-15.64C250.7,279.38,246.19,281.62,243.66,283.21Z"/><path class="cls-3" d="M257.2,292.52a6.34,6.34,0,0,1-10.47,3.32L235.91,286l-10.83-9.89a6.34,6.34,0,0,1,2.36-10.73l14-4.43,14-4.43a6.34,6.34,0,0,1,8.11,7.41l-3.15,14.32Z"/><path class="cls-6" d="M181.45,239.59c-7.24-11.06,6.44-29.07,6.44-29.07s22.4,1.33,26.15,13.9"/><path class="cls-6" d="M232.31,218.6c-4.19-12.54,13.63-26.48,13.63-26.48s21.32,7,21.75,20.1"/><path class="cls-5" d="M331.61,368.05c4.65-.65,8.56.19,8.84,1.94.24,1.54-2.41,3.28-6.2,4.23a1.37,1.37,0,0,1,.36.72c.29,1.81-3.4,3.88-8.23,4.65.29,1.81-3.4,3.88-8.24,4.65a19.11,19.11,0,0,1-6.11.07c-1.25.29-2.54.55-3.87.75-13.84,2.19-25.89-1.28-26.92-7.76s9.37-13.49,23.21-15.68a51.9,51.9,0,0,1,8.06-.65,20.37,20.37,0,0,1,5-1.41c4.83-.76,9,.07,9.26,1.88a2.23,2.23,0,0,1-1,1.92c-.13.11-.27.22-.43.33l1-.07c3.73-.19,6.62.64,6.85,2.14.12.76-.47,1.57-1.55,2.3l-.43.06-.15,0"/><path class="cls-7" d="M146.68,294.66c-.75-17,5.11-32.36,14.65-41.76-11.95,7.2-19.86,23.44-19,42s10.13,34,22.66,40.11C154.61,326.45,147.43,311.7,146.68,294.66Z"/></g></svg>