<svg id="Layer_1" data-name="Layer 1" xmlns="http://www.w3.org/2000/svg" viewBox="0 0 500 500"><defs><style>.cls-1{fill:#9d4e29;}.cls-2{fill:#f3d8b3;}.cls-3{fill:#9c8063;}.cls-4{fill:#caa97d;}.cls-5{fill:#54260c;}.cls-6,.cls-7{fill:none;}.cls-7{stroke:#1a1a1a;stroke-linecap:round;stroke-miterlimit:10;stroke-width:3.42px;}.cls-8,.cls-9{fill:#978d7d;}.cls-8{opacity:0.39;}.cls-9{opacity:0.66;}.cls-10{fill:#1a1a1a;opacity:0.56;}</style></defs><g id="dog"><path class="cls-1" d="M389.68,309.25v2.58c0-.88-.05-1.73-.08-2.58Z"/><path class="cls-2" d="M425.43,326.66c12,18.71,13.78,41.16,2.48,61.91s-33.36,35.49-59.08,42c32.46,2.31,64.48-11.61,77.76-36S450.31,342.88,425.43,326.66Z"/><path class="cls-3" d="M436.2,419.24c0,32.83-12.17,59.66-27.45,61.33v1.67H245.49c-27.75,0-50.24-15.9-50.24-35.51V310c0-37,47.79-67.06,106.75-67.06S408.76,273,408.76,310v31.63c0,7.71,3.52,15.21,10.11,21.36C429.07,372.47,436.2,394.09,436.2,419.24Z"/><path class="cls-4" d="M408.78,308.79V482.23H339.71v-145H263v145H195.25V308.79c0-.68,0-1.33.08-2,2.28-42.24,49.15-76,106.7-76s104.39,33.72,106.68,76C408.73,307.46,408.75,308.12,408.78,308.79Z"/><ellipse class="cls-5" cx="301.34" cy="336.35" rx="38.36" ry="29.54"/><path class="cls-2" d="M263,484.17c0-.08,0-.15,0-.22,0-15.3-16.11-27.71-36-27.71s-36,12.41-36,27.71c0,.08,0,.15,0,.22Z"/><path class="cls-2" d="M410.69,484.17c0-.08,0-.15,0-.22,0-15.3-16.11-27.71-36-27.71s-36,12.41-36,27.71c0,.08,0,.15,0,.22Z"/><ellipse class="cls-3" cx="301.68" cy="336.35" rx="38.69" ry="29.54"/><path class="cls-3" d="M264.67,337.62c0,.14,0,.27,0,.41,0,27.74,2.17,50.23,22.64,50.23,12,0,31.4-6.64,42.26-18.55,7.73-8.48,9.2-20.14,9.2-31.68,0-.14,0-.27,0-.41Z"/><path class="cls-2" d="M374.77,201.32a25.47,25.47,0,0,0,.23,20.34l0,.1c15.44,35.69-11.65,81.73-60.51,102.86s-101,9.36-116.4-26.32q-.22-.51-.43-1a27.34,27.34,0,0,0-15.47-15.21C150,269.52,123,245.32,108.68,212.13,78.86,143.19,114.4,61.45,188.08,29.57s157.54-1.8,187.37,67.14C390.27,131,388.93,168.44,374.77,201.32Z"/><path class="cls-4" d="M114.44,96.85c-3.44,6.17-26,24-59.39,83.58-4,7.11-10.69,19.47-9.19,35.16,1.62,16.92,11.89,28.4,13.91,30.58,6.33,6.84,12.8,10,25.3,16.17,18.13,8.92,19.06,5.39,25.85,11.18C122.08,283,121,293.76,133.64,301c3.63,2.07,7.95,5.55,11.2,4,5.53-2.69,3.42-17,3-19.61-2-13.78-8.35-22.33-13.09-30.26,0,0-3.59-6-16.07-41.85C100.71,161.52,120.79,85.47,114.44,96.85Z"/><path class="cls-4" d="M285.26,20.95c6.85,1.71,35.34-2.53,101.58,13.94,7.91,2,21.51,5.54,31.92,17.37C430,65,431.31,80.37,431.52,83.34c.65,9.3-1.46,16.18-5.53,29.51-5.91,19.33-9.12,17.58-9.55,26.5-.71,14.64,7.84,21.22,4.45,35.35-1,4.07-1.4,9.59-4.78,10.88-5.75,2.19-14.76-9.18-16.38-11.22-8.66-10.92-10.56-21.37-13.09-30.26,0,0-1.92-6.73-19.5-40.37C341.79,55.22,272.61,17.78,285.26,20.95Z"/><ellipse cx="281.86" cy="255.24" rx="45.03" ry="26.44" transform="translate(-78.18 132.9) rotate(-23.4)"/><path class="cls-6" d="M233.45,298.45c7.24,14.39,22.73,21.55,35.65,18.12,16.16-4.29,27.11-24.85,19.27-44.33"/><path class="cls-7" d="M176.75,176.88c-1-4,.12-22.26,8.65-26.66,4.92-2.54,17.65,4.78,22.86,11.44"/><path class="cls-7" d="M280.18,137.78c-.63-4,2.42-22.13,11.36-25.62,5.16-2,17.06,6.58,21.55,13.74"/><path class="cls-6" d="M290,274c7.24,14.39,22.73,21.55,35.65,18.12,16.16-4.29,27.11-24.85,19.27-44.33"/><path class="cls-8" d="M126.72,157.2c0-43.41,13.12-81.7,33.11-104.51-24.62,17-42,57.36-42,104.51s17.33,87.54,42,104.51C139.84,238.9,126.72,200.6,126.72,157.2Z"/><path class="cls-9" d="M58.74,209.69c0-18.21,7.79-34.27,19.67-43.84C63.78,173,53.49,189.91,53.49,209.69s10.3,36.73,24.93,43.84C66.54,244,58.74,227.9,58.74,209.69Z"/><rect class="cls-9" x="199.21" y="331.9" width="5.63" height="121.94"/><rect class="cls-9" x="344.52" y="331.9" width="5.63" height="121.94"/><path class="cls-10" d="M253.25,271c-5.37-8.49-1.15-21.63,9.66-34.71-14.7,13.94-21.53,29.31-15.7,38.53s22.64,9.64,41.54,2.34C272.3,281.29,258.62,279.46,253.25,271Z"/></g></svg>