<svg id="Layer_1" data-name="Layer 1" xmlns="http://www.w3.org/2000/svg" viewBox="0 0 500 500"><defs><style>.cls-1{fill:#f7ba15;}.cls-2{fill:#af9069;}.cls-3{fill:#f1cab5;}.cls-4{fill:#71bb34;}.cls-5{fill:#e0d0b6;}.cls-6{fill:#ff8000;}.cls-7{fill:none;stroke:#1a1a1a;stroke-linecap:round;stroke-miterlimit:10;stroke-width:3.36px;}.cls-8{fill:#60962c;}</style></defs><g id="duck"><path class="cls-1" d="M193.81,377.69v63.1a46.75,46.75,0,0,0-10.65,3.35,51.42,51.42,0,0,0-14.6,10.25c-15.61,15.27-21.77,32.49-24.72,31.48-1.67-.6-1.41-7.1,0-12.59,4-15.67,16.88-23.38,15.54-25.25-1.21-1.61-11.59,3.35-19,7.77-6.76,4.15-9.71,7.1-10.65,6.3-1.21-1,1.81-8.51,7.77-13.53,7.57-6.36,16.48-5.9,16.48-7.3s-8.17-3.21-16.48-1.47c-5,1.07-9,3.15-9.71,1.94-.54-.8.8-2.81,2-4.76a20.33,20.33,0,0,1,1.88-2.48c2.08-2.34,11.25-4.69,23.78-4.42,8.77-4.29,17.42-8.57,26.19-12.86V377.69Z"/><path class="cls-1" d="M325.44,377.69v63.1a46.75,46.75,0,0,0-10.65,3.35,51.42,51.42,0,0,0-14.6,10.25c-15.61,15.27-21.77,32.49-24.72,31.48-1.67-.6-1.41-7.1,0-12.59,4-15.67,16.88-23.38,15.54-25.25-1.21-1.61-11.59,3.35-19,7.77-6.76,4.15-9.71,7.1-10.65,6.3-1.21-1,1.81-8.51,7.77-13.53,7.57-6.36,16.48-5.9,16.48-7.3s-8.17-3.21-16.48-1.47c-5,1.07-9,3.15-9.71,1.94-.54-.8.8-2.81,2-4.76a20.33,20.33,0,0,1,1.88-2.48c2.08-2.34,11.25-4.69,23.78-4.42,8.77-4.29,17.42-8.57,26.19-12.86V377.69Z"/><path class="cls-2" d="M405.5,296.66c-8.32,57.18-68.32,104.62-152.61,104.62S100.29,354.45,100.29,296.66,168.61,192,252.9,192c47.69,0,80.66,27.68,116.84,32.8,17.94,2.54,39.26-22.53,44.25-15.77C424.47,223.26,408.1,278.78,405.5,296.66Z"/><path class="cls-3" d="M373.22,281.05c10.79-2.63,20.23-1.57,21.29,2.49.94,3.57-4.9,8.3-13.62,11.43a3.25,3.25,0,0,1,1,1.62c1.1,4.19-7.1,10-18.31,12.89,1.1,4.19-7.1,10-18.32,12.9a45.28,45.28,0,0,1-14.37,1.6c-2.88,1-5.87,1.88-8.94,2.69-32.11,8.43-61.33,3.08-65.27-11.93s18.9-34,51-42.43a122.93,122.93,0,0,1,18.84-3.43A48.26,48.26,0,0,1,338,264.36c11.2-2.94,21.18-1.94,22.28,2.24.38,1.45-.37,3.1-2,4.76-.28.29-.59.59-.94.88.78-.15,1.55-.28,2.3-.4,8.75-1.33,15.74-.06,16.65,3.42.46,1.76-.73,3.8-3.1,5.79l-1,.25-.34.09"/><circle class="cls-4" cx="189.29" cy="127.58" r="109.18"/><path class="cls-5" d="M208.48,226.9c-30.88,6-42.68,5.4-67.93-1,22.17,18.75,35.62,17.38,68.83,10.89s54.4-16.22,67-43.37C255.44,208.85,239.36,220.86,208.48,226.9Z"/><path class="cls-1" d="M189.28,185.28a9.78,9.78,0,0,1-16.93-.16l-11.11-19.69-11.11-19.69a9.78,9.78,0,0,1,8.61-14.58l22.61.22,22.61.22a9.78,9.78,0,0,1,8.32,14.75l-11.49,19.47Z"/><path class="cls-6" d="M181.77,179.82a9.32,9.32,0,0,1-16.15-.16L155,160.89l-10.59-18.77a9.32,9.32,0,0,1,8.21-13.9l21.55.21,21.55.21a9.32,9.32,0,0,1,7.94,14.06l-11,18.56Z"/><path class="cls-3" d="M173.38,309.07c29.6,29.6,57.91,60.3,41.66,76.55s-54.59,2.47-84.66-26.65-39.67-65.06-21.81-85.9C122.59,256.71,143.78,279.47,173.38,309.07Z"/><path class="cls-7" d="M197,98.43c-1.59-9.32,9.36-17.7,14.48-21.06a4.9,4.9,0,0,1,5.17-.14c5.12,3,15.9,10.34,15.32,19.26"/><path class="cls-7" d="M132.79,100.55c-2.64-9.08,7.29-18.64,12-22.56a4.9,4.9,0,0,1,5.12-.73c5.42,2.38,17,8.47,17.4,17.4"/><path class="cls-8" d="M94.09,133c-1.48-33.61,11-63.86,31.13-82.44-25.23,14.27-42,46.35-40.4,82.85s21.15,67,47.53,79C110.63,195.63,95.57,166.59,94.09,133Z"/></g></svg>