<svg id="Layer_1" data-name="Layer 1" xmlns="http://www.w3.org/2000/svg" viewBox="0 0 500 500"><defs><style>.cls-1{fill:#757574;}.cls-2{fill:#333;}.cls-3{fill:#878584;}.cls-4{fill:#c1bfbd;}.cls-5{fill:#4c443f;}.cls-6{fill:#686868;}.cls-7{fill:#9b9a9a;}.cls-8{fill:#6d6d6d;}.cls-9{fill:#eeb2d0;}.cls-10{fill:none;stroke:#1a1a1a;stroke-linecap:round;stroke-miterlimit:10;stroke-width:2.91px;}.cls-11{fill:#8e8e8e;}.cls-12{fill:#1e1d1d;}</style></defs><g id="goat"><path class="cls-1" d="M351.49,480.54a1.56,1.56,0,0,1-1.56,1.56H307a1.56,1.56,0,0,1-1.56-1.56s-.25-20.87-.25-21.41V434.55a111.49,111.49,0,0,1-44.91,0v24.56c0,.55.25,21.41.25,21.41A1.56,1.56,0,0,1,259,482.1H216.1a1.56,1.56,0,0,1-1.56-1.56s-.23-20.87-.23-21.41v-46a109.56,109.56,0,0,1-41.84-86.2c0-60.7,49.36-109.9,110.26-109.9S393,266.23,393,326.93a109.59,109.59,0,0,1-41.74,86.13v46.07C351.24,459.68,351.49,480.54,351.49,480.54Z"/><rect class="cls-2" x="305.35" y="461.94" width="46.19" height="19.97" rx="1" ry="1"/><path class="cls-3" d="M328.62,15.91c29.88-7.32,61.17,7.54,83,35.7-15.21-7.54-31.72-10.05-47.81-6.11-44.75,11-69.36,67.47-55,126.22a136,136,0,0,0,24.13,50.83c-27.08-13.42-50.05-42.8-59.27-80.41C259.26,83.38,283.87,26.87,328.62,15.91Z"/><path class="cls-4" d="M330.91,373.91c1.55-10.6-5-26.58-5.68-28.29-3.92-9.58-8.9-15.09-12.88-19.49-6.88-7.6-7.92-5.55-12.51-11.32-6.17-7.76-13.69-23.3-11.37-34.58,2.23-10.84,12.61-13.2,12.13-16.35-.33-2.15-5.24-1.43-10.61-1.26-19.77.62-25.77-6.86-31.07.63-2.83,4-1.15,6.17-4.93,20.75-3.65,14.11-5.93,14.77-12.88,34.58-5,14.25-7.52,21.58-8.34,31.43-.91,11.07.31,22,1.89,27.66C245.46,416.55,326.28,405.62,330.91,373.91Z"/><path class="cls-5" d="M250.2,289.86a86.49,86.49,0,0,1,11.28,16.51c8.6,16.42,8.25,28.86,11.9,29.26,2.32.26,6.24-4.4,13-28.4,1.19,5.82,3.09,14.36,6,24.52,5.8,20.38,14.83,44.63,17.85,43.89,1.88-.46-.4-10.23,1-28.92a174.62,174.62,0,0,1,2.78-20.37,66.84,66.84,0,0,0,15.86,19.54c3.74,3.13,10.1,7.74,11.25,6.62,1.66-1.62-10.68-12.05-13.8-28.87a46.16,46.16,0,0,1,.32-17.89c2.62,2,6.2,4.65,10.49,7.76,6.52,4.73,8,5.67,9,5.11,1.85-1.14-1.11-6.94-2.34-16.36a67.09,67.09,0,0,1,.69-20.93c2.57-14.79,8.85-19.44,7.34-22.29C350.41,254.47,329.36,257.62,250.2,289.86Z"/><path class="cls-3" d="M130.73,64.34C100.94,72,80.39,99.89,74.49,135c9.85-13.83,23.2-23.85,39.25-28,44.62-11.48,93,26.69,108.08,85.26,5,19.46,26.64-5.18,17-42.68C223.74,91,175.35,52.86,130.73,64.34Z"/><path class="cls-6" d="M188.63,332.47c-1.45-32.85,8.43-62.32,24.67-80.33-20.38,13.76-33.77,45-32.2,80.66s17.66,65.6,39.17,77.52C202.51,393.8,190.07,365.32,188.63,332.47Z"/><rect class="cls-2" x="214.44" y="461.46" width="46" height="20.51" rx="1" ry="1"/><path class="cls-7" d="M428.41,123.86c-.46,8.1-35.85,9.34-37.3,9.8,29.94,55.75-39.68,158.54-88,169.17-47.49,10.45-155.72-58.14-145.87-111-19.42,4.86-41,18.33-45.83,9.15-5.75-11,15.86-41.68,44.29-46.88a53.3,53.3,0,0,1,14-.62,124.32,124.32,0,0,1,191.31-48.88,52.75,52.75,0,0,1,13.24-4.37C400.24,95.45,429.07,112.39,428.41,123.86Z"/><ellipse class="cls-8" cx="308.77" cy="240.52" rx="16.63" ry="11.49" transform="translate(33.98 519.23) rotate(-83.32)"/><ellipse class="cls-8" cx="274.95" cy="249.23" rx="11.49" ry="16.63" transform="translate(-93.65 206.28) rotate(-35.54)"/><path class="cls-5" d="M214.85,90.32a35.25,35.25,0,0,0-6.49,14c-.74,3.42-2.71,12.48,2.12,21.33,4.73,8.67,13.16,12,16.3,13.2,9.82,3.85,14,.45,22.82,3.66,4.72,1.72,11.11,5.47,17.23,14.64a22.18,22.18,0,0,0,4.16-7.8c1.47-5.06.18-7.93,2.42-12.4a36,36,0,0,1,3.79-4.9c6.11-7.33,7.58-7.83,9.41-11.4,2.09-4.07,2.25-7.45,2.58-7.4.72.12-.42,15.82-.42,15.82s8.16-8.22,9.23-18.65a29,29,0,0,0-3.42-17.64c-7-12.07-21.32-14.1-25.67-14.71-15.08-2.14-26.66,4.9-30.13,7.19,3.13-5.27,2.31-8.45,2.31-8.45S223.36,79.3,214.85,90.32Z"/><ellipse class="cls-9" cx="139.31" cy="179.85" rx="21.85" ry="7.57" transform="translate(-74.63 102.5) rotate(-32.36)"/><ellipse class="cls-9" cx="395.48" cy="118.42" rx="7.57" ry="21.85" transform="translate(253.18 505.95) rotate(-86.5)"/><path class="cls-4" d="M134.34,69.38c16.86-2.14,32.65,1.09,45.41,4.43C170.3,67,155.27,63.67,139,65.74c-12.35,1.57-23.21,6-31,11.88C116,74.91,124.91,70.58,134.34,69.38Z"/><path class="cls-4" d="M329.23,21.94C313.36,28,301,38.33,291.3,47.3c5.13-10.45,16.79-20.51,32.15-26.4,11.63-4.45,23.27-5.71,32.93-4.18C348,18.13,338.11,18.54,329.23,21.94Z"/><path class="cls-10" d="M222,202.46c-4-7.13,2.42-17.18,5.61-21.44a4.25,4.25,0,0,1,4.17-1.64c5,.92,16,3.75,18.16,11.19"/><path class="cls-10" d="M302.84,180.62C299.7,173,307.35,163.87,311,160a4.25,4.25,0,0,1,4.34-1.11c4.9,1.54,15.43,5.69,16.65,13.34"/><path class="cls-11" d="M171.13,196.72c-1.13-25.57,9-48.61,25.45-62.8-20.5,10.92-34.19,35.36-33,63.13s17,50.91,38.39,60C184.41,244.35,172.26,222.29,171.13,196.72Z"/><rect class="cls-12" x="217.39" y="462.49" width="3.18" height="18.12" rx="1" ry="1"/></g></svg>