<svg id="Layer_1" data-name="Layer 1" xmlns="http://www.w3.org/2000/svg" viewBox="0 0 500 500"><defs><style>.cls-1{fill:#26120b;}.cls-2{fill:#894327;}.cls-3{fill:#662c1b;}.cls-4{fill:#9d4e29;}.cls-5{fill:#e6bda6;}.cls-6{fill:#f9f1e5;}.cls-7{fill:#e7b47d;}.cls-8{fill:#333;}.cls-10,.cls-9{fill:none;stroke-linecap:round;stroke-miterlimit:10;stroke-width:3px;}.cls-9{stroke:#1a1a1a;}.cls-10{stroke:#4d4d4d;}.cls-11{fill:#7f3a1f;}.cls-12{fill:#1e1d1d;}</style></defs><g id="horse"><path class="cls-1" d="M324.82,252.41c4.65-7.74,18.26-28,44.83-39.52a96.11,96.11,0,0,1,49.89-7.25,93.06,93.06,0,0,1,22.33,5.73l-2.24,42.42a48,48,0,0,0-16.88-9.15c-15-4.53-27.91-.17-32.41,1.6a56.68,56.68,0,0,1,44.61,19.86L412.59,289a22.43,22.43,0,0,0-3-12.52c-5.46-8.94-17.89-13.21-31.19-10.56a29.93,29.93,0,0,1,15.09,7.5c8.83,8.26,9.35,19.18,9.4,21.44L378.59,307a30,30,0,0,0-3.38-11c-.94-1.75-6.48-12-15.87-13.59,0,0-7.85-1.3-19.61,5.47h0Z"/><path class="cls-2" d="M315.36,465.34a1.51,1.51,0,0,1-1.5,1.5h-41.3a1.51,1.51,0,0,1-1.5-1.5s-.24-20.1-.24-20.63V421a107.28,107.28,0,0,1-43.24,0v23.66c0,.53.24,20.63.24,20.63a1.51,1.51,0,0,1-1.5,1.5H185a1.51,1.51,0,0,1-1.5-1.5s-.23-20.1-.23-20.63V400.39a105.57,105.57,0,0,1-40.28-83c0-58.47,47.52-105.87,106.16-105.87S355.3,258.88,355.3,317.36a105.59,105.59,0,0,1-40.19,83v44.38C315.12,445.24,315.36,465.34,315.36,465.34Z"/><path class="cls-3" d="M156.91,317.86c-1.49-33.91,8.71-64.33,25.47-82.93-21,14.21-34.86,46.44-33.24,83.27s18.23,67.72,40.43,80C171.24,381.18,158.41,351.77,156.91,317.86Z"/><path class="cls-4" d="M98.92,164.93c15,5.17,33.12,12.63,42.59,9.09,5.11-1.91,8.16-11,9.6-15.19,1.71-4.95,6.95-14.23,2.72-19.75-5.89-7.69-26.68-12.39-40.1-17-23-8-49.12,7-49.12,7S75.88,157,98.92,164.93Z"/><path class="cls-5" d="M202.16,280.53c-1.6,10.95,5.15,27.44,5.87,29.21,4,9.89,9.19,15.58,13.3,20.12,7.1,7.84,8.17,5.73,12.91,11.68,6.37,8,14.13,24.05,11.74,35.7-2.3,11.19-13,13.63-12.52,16.87.34,2.22,5.41,1.47,11,1.3,20.41-.64,26.6,7.08,32.08-.65,2.93-4.13,1.19-6.37,5.09-21.42,3.77-14.57,6.12-15.25,13.3-35.7,5.17-14.71,7.77-22.28,8.61-32.45.94-11.43-.32-22.67-2-28.56C290.37,236.51,206.93,247.8,202.16,280.53Z"/><path class="cls-4" d="M346.23,76.53c-6.68,14.08-13.92,32-23,36.17-4.91,2.25-13.57-2-17.54-3.83-4.73-2.24-15-5-16-11.82-1.43-9.47,9.63-27.32,15.61-39.94,10.28-21.68,39.1-29.54,39.1-29.54S356.5,54.85,346.23,76.53Z"/><path class="cls-5" d="M310.81,71.54c-4.28,8.3-10.06,18.34-9.43,23.84.34,3,4.46,5,6.33,6,2.23,1.15,6.17,4.46,9.38,2.26,4.46-3.06,9.19-14.69,13-22.13,6.59-12.79,2.28-28.13,2.28-28.13S317.4,58.76,310.81,71.54Z"/><path class="cls-5" d="M110.32,159.27c8.83,3.05,19.59,7.34,24.94,5.92,2.89-.76,4.34-5.14,5-7.13.82-2.37,3.53-6.75.9-9.6-3.67-4-15.86-7-23.77-9.73-13.6-4.7-28.17,1.76-28.17,1.76S96.73,154.58,110.32,159.27Z"/><circle class="cls-4" cx="243.41" cy="193.22" r="115.51" transform="translate(-50.13 91.17) rotate(-19.27)"/><path class="cls-6" d="M263.93,231.08c-2,.74-4.48-7.1-13.07-15-7-6.44-14.43-9.58-22.09-12.82-14-5.91-17.31-4.09-21.74-9-5.55-6.18-7.46-17-3.57-24.19,3.68-6.81,9.61-5,15-13.07,4.75-7.09,4.51-15,4.41-18.17-.31-9.83-4.71-17.32-7.92-22.66-6.68-11.09-12.51-13.59-11.37-18.53,1.06-4.57,7.4-8.25,11.29-6.88,3.52,1.24,2.84,5.85,6.93,14.21,4.48,9.16,7.38,7.92,11.63,16.48,5.23,10.53,1.84,14.47,6.71,19.18,6.45,6.24,15.2,2,18.21,7.33,2.7,4.77-3.83,9-3.23,18.74.52,8.36,5.56,8.38,8.45,18.57,2.52,8.89-.82,10.63-.18,27.46C263.81,224.32,265.67,230.43,263.93,231.08Z"/><ellipse class="cls-7" cx="264.3" cy="250.15" rx="71.98" ry="45.73" transform="translate(-67.75 101.26) rotate(-19.27)"/><rect class="cls-8" x="183.51" y="463.55" width="44.3" height="21.18" rx="1" ry="1"/><rect class="cls-8" x="271.05" y="464.04" width="44.3" height="20.61" rx="1" ry="1"/><path class="cls-1" d="M190.1,107.13l25.23,15.14a14.65,14.65,0,0,0,6.73-4.48c3.72-4.5,4.28-11.2,1.68-17.38a14.21,14.21,0,0,1,7.85,6.73,14.54,14.54,0,0,1-1.68,15.14l32.52,9.53a14.24,14.24,0,0,0,4.48-5.61c3-7.1-1.77-14.08,0-15.14,1.49-.89,6.75,3,8.41,8.41,1.87,6.13-1.66,11.47-2.24,12.33l39.24,4.48a59.77,59.77,0,0,0,7.29-12.33,64.91,64.91,0,0,0,5-23c.35-8.31.84-20-6.17-32a49.22,49.22,0,0,0-22.42-19.62,25.16,25.16,0,0,1,8.41-2.8A25.91,25.91,0,0,1,319,48.82a21.88,21.88,0,0,0-4.49-8.41c-4.22-4.87-9.48-6.37-12.89-7.29-11-3-20.73.55-24.67,2.24a20.07,20.07,0,0,1,4.65-5.15c10.36-8,25.22-2.58,27-1.88a109.68,109.68,0,0,0-22-8.83c-32.5-9.11-72.14-3.75-100.85,18-10.3,7.81-19.13,19.61-36.81,43.19-10,13.39-18.14,25.8-34,44.13-6.2,7.17-11.55,12.89-15.21,16.71a21.79,21.79,0,0,0,16.9,5.45,24.18,24.18,0,0,1-3,2.44c-7.13,4.9-15.2,4.75-19.34,4.32l-.94,36.43a40.74,40.74,0,0,0,3.76,1.69,41.89,41.89,0,0,0,14.08,2.82,26.46,26.46,0,0,1-1.88,3.57c-4.76,7.57-12.27,10.93-16.53,12.39a37.81,37.81,0,0,0,.19,5.07c1.26,12,8.05,20.53,13.52,26.85,20,23.09,30,34.63,48.08,40.56a76.55,76.55,0,0,0,23.1,3.76,103.11,103.11,0,0,1-18.4-14.65,110.3,110.3,0,0,1-25.54-42.07,113.44,113.44,0,0,1-3.38-59.72c2.86-12.77,7.38-32.93,25.54-48.08A71.55,71.55,0,0,1,190.1,107.13Z"/><path class="cls-9" d="M163.93,190.26c-.63-3.59,1.75-19.79,9.66-23.07,4.57-1.89,15.35,5.56,19.48,11.87"/><path class="cls-9" d="M273.2,167.56c-.26-3.64,3.79-19.5,12-21.95,4.74-1.41,14.69,7.12,18.15,13.82"/><path class="cls-10" d="M220.74,266.25c.89-1.05,8.25-9.39,20.16-8.93a25.83,25.83,0,0,1,18.08,8.8"/><path class="cls-10" d="M307.75,231c-1.38-.05-12.5-.28-20.21,8.8a25.83,25.83,0,0,0-5.75,19.27"/><path class="cls-11" d="M142.59,200.3c-1.49-33.91,8.71-64.33,25.47-82.93-21,14.21-34.86,46.44-33.24,83.27s18.23,67.72,40.43,80C156.92,263.62,144.08,234.21,142.59,200.3Z"/><rect class="cls-12" x="184.87" y="464.61" width="3.29" height="18.71" rx="1" ry="1"/></g></svg>