<svg id="Layer_1" data-name="Layer 1" xmlns="http://www.w3.org/2000/svg" viewBox="0 0 500 500"><defs><style>.cls-1{fill:#f5b485;}.cls-2{fill:#7d4a3c;}.cls-3{fill:#c77f4f;}.cls-4{fill:#e8a473;}.cls-5{fill:#f2c399;}.cls-6{fill:#d49061;}.cls-7{fill:#f7e4b5;}.cls-8{fill:#f2f2f2;stroke:#865849;stroke-width:0.69px;}.cls-11,.cls-8,.cls-9{stroke-linecap:round;stroke-miterlimit:10;}.cls-11,.cls-9{fill:none;}.cls-9{stroke:#7e625b;stroke-width:2.47px;}.cls-10{fill:#865849;}.cls-11{stroke:#1a1a1a;stroke-width:2.42px;}</style></defs><g id="llama"><rect class="cls-1" x="285.67" y="429.76" width="21.57" height="53.17" rx="5.72" ry="5.72"/><rect class="cls-1" x="232.46" y="429.83" width="21.57" height="53.17" rx="5.72" ry="5.72"/><rect class="cls-2" x="232.46" y="475.77" width="21.57" height="9.73" rx="1" ry="1"/><rect class="cls-3" x="229.25" y="390.43" width="27.99" height="53.17" rx="5.95" ry="5.95"/><path class="cls-4" d="M207.46,118.79a40.27,40.27,0,0,1-16.7-12.37c-8-10.2-8.27-21.49-8.48-29.44-.2-7.41,1.72-14.28,5.57-28,1-3.43,2-6.62,3.24-6.61,2.19,0,3.49,9.44,4.62,14.12,2.24,9.29,9.07,21.83,29.88,35.09Z"/><path class="cls-4" d="M295.79,89.89A40.27,40.27,0,0,0,302,70c.4-12.93-6-22.22-10.56-28.76-4.22-6.1-9.83-10.5-21-19.3-2.81-2.2-5.5-4.18-6.52-3.42-1.76,1.3,2.76,9.68,4.62,14.12,3.68,8.82,5.59,23-3.37,46Z"/><path class="cls-5" d="M208,114.65A30.1,30.1,0,0,1,195.93,106c-6.12-7.27-7.27-15.52-8.08-21.32-.75-5.42-.06-10.48,1.33-20.61.35-2.53.74-4.89,1.59-4.91,1.45,0,3.1,6.82,4.24,10.22,2.26,6.74,7.83,15.75,22.7,25Z"/><path class="cls-5" d="M290.92,85.62a30.5,30.5,0,0,0,4.25-14.15c.48-9.52-3.45-16.91-6.2-22.11-2.57-4.85-6.06-8.56-13-16-1.74-1.86-3.42-3.54-4.08-3.06-1.14.82,1.59,7.37,2.69,10.81,2.18,6.81,3.15,17.42-2.93,33.67Z"/><rect class="cls-3" x="282.41" y="390.43" width="27.99" height="53.17" rx="5.95" ry="5.95"/><path class="cls-4" d="M338.46,330.23c0,50-32.91,90.54-73.5,90.54s-73.5-40.54-73.5-90.54c0-31.45,13-59.15,32.77-75.38a48.74,48.74,0,0,0,17.41-38.51q0-2,0-4c0-45.33-10-73,25.84-73,31.84,0,23.48,27.66,23.48,73q0,.71,0,1.42a62.15,62.15,0,0,0,19.23,45.09C327.39,275.41,338.46,301.23,338.46,330.23Z"/><ellipse class="cls-6" cx="259.46" cy="128.59" rx="58.05" ry="64.32" transform="translate(-27.12 87.04) rotate(-18.11)"/><path class="cls-5" d="M265.11,265.86c-8.87-.23-18.47,13.62-16.18,17.73,1.5,2.7,7.59.23,9.25,3.08,2.18,3.75-6.92,10.4-13.87,24.66-4,8.15-6.55,17.36-4.62,18.5s6.3-7,10-6.17c9,1.93,4.34,54.48,6.94,54.72,2.38.22,7.37-44.12,11.56-43.93,2.85.13,2.78,20.72,5.39,20.81s9-20.43,5.39-42.39c-1.35-8.14-3.79-14.72-2.31-15.41,2.57-1.2,12.14,17.77,13.87,17C293.14,313.2,281.25,266.28,265.11,265.86Z"/><rect class="cls-2" x="285.67" y="475.7" width="21.57" height="9.73" rx="1" ry="1"/><path class="cls-5" d="M258.86,79.16a8.52,8.52,0,0,1-.22,2A9.33,9.33,0,0,1,257.37,79,8.81,8.81,0,0,0,258.86,79.16Z"/><path class="cls-5" d="M258.86,79.16a8.52,8.52,0,0,1-.22,2A9.33,9.33,0,0,1,257.37,79,8.81,8.81,0,0,0,258.86,79.16Z"/><path class="cls-7" d="M302.78,76.24a8.84,8.84,0,0,0,0-5.48A9,9,0,0,0,291.36,65a8.88,8.88,0,0,0-2.07,1,8.76,8.76,0,0,0-.36-4,9,9,0,0,0-14.51-4c-.06-.23-.12-.47-.2-.69a9,9,0,0,0-17.6,3,9,9,0,0,0-16.11,2.89,9,9,0,0,0-14.58,5.49A9,9,0,0,0,216.31,73a9,9,0,1,0-6.87,14.54,5.37,5.37,0,0,0-.1,1,8.84,8.84,0,0,0-5.09.14,9,9,0,0,0-5.77,11.38,8.84,8.84,0,0,0,2.67,4A9,9,0,1,0,214,110.8a9.18,9.18,0,0,0,1.93-.41A9,9,0,0,0,221.67,99a9.32,9.32,0,0,0-.65-1.51l.14,0A9,9,0,0,0,227.34,88a9.33,9.33,0,0,1-1.86-1.61,8.81,8.81,0,0,0,1.45-.35,8.52,8.52,0,0,1,.41,2,9,9,0,0,0,12.83-3.17,9,9,0,0,0,15.9-3.18,9,9,0,0,0,8.48,1.58,8.83,8.83,0,0,0,4.23-3,8.94,8.94,0,0,0,7.45.86,9.08,9.08,0,0,0,1.39-.59,9,9,0,0,0,10.78,4.37l.12,0a9,9,0,1,0,14.26-8.67Zm-44.57-9.85a9.67,9.67,0,0,0,.05-1.12c.21.29.44.58.67.84A7.24,7.24,0,0,0,258.21,66.39Z"/><path class="cls-7" d="M291,164.26c.06.14.1.27.15.42,2.2,6.71-4.31,14.88-14.55,18.23s-20.31.61-22.51-6.11a7.33,7.33,0,0,1-.24-.92c-7.61-1.3-13.42-5.07-15.3-10.82-3.36-10.28,7.17-22.94,23.51-28.29s32.33-1.36,35.69,8.92C299.77,151.71,297,158.54,291,164.26Z"/><polygon class="cls-8" points="275.52 177.19 267.02 179.97 265.65 175.78 268.49 170.08 269.33 158.53 275.52 177.19"/><polygon class="cls-8" points="274.89 177.4 283.39 174.62 282.02 170.43 276.36 167.51 269.33 160.43 274.89 177.4"/><path class="cls-9" d="M255.34,178.12c1.93.21,7.65.58,11.08-3,3.12-3.3,2.66-8.12,2-15a57.19,57.19,0,0,0-3.67-15.27"/><path class="cls-9" d="M291.14,166.41c-1.43,1.31-5.83,5-10.74,4.09-4.47-.82-6.94-5-10.48-10.95a57.19,57.19,0,0,1-6.06-14.49"/><ellipse class="cls-10" cx="264.73" cy="144.77" rx="19.3" ry="8.4" transform="translate(-31.89 89.48) rotate(-18.11)"/><path class="cls-11" d="M230.49,126.08s-.49-13.34,4.69-15.26c4.75-1.76,13.18,7.07,13.18,7.07"/><path class="cls-11" d="M263.08,114.95s.75-13.33,6.08-14.77c4.89-1.32,12.47,8.25,12.47,8.25"/></g></svg>