<svg id="Layer_1" data-name="Layer 1" xmlns="http://www.w3.org/2000/svg" viewBox="0 0 500 500"><defs><style>.cls-1{fill:#456354;}.cls-2{fill:#6ca685;}.cls-3{fill:#ef9a72;}.cls-4{fill:#33419b;}.cls-5{fill:#bead3e;}.cls-6{fill:none;stroke:#1a1a1a;stroke-linecap:round;stroke-miterlimit:10;stroke-width:1.61px;}.cls-7{fill:#c485ae;}.cls-8{fill:#0d184e;}.cls-9{fill:#ab6a53;}</style></defs><g id="peacock"><ellipse class="cls-1" cx="260.16" cy="148.31" rx="121.31" ry="26.83" transform="translate(60.16 371.21) rotate(-77.79)"/><ellipse class="cls-1" cx="290.19" cy="156.21" rx="121.31" ry="26.83" transform="translate(-10.66 290.75) rotate(-52.39)"/><ellipse class="cls-1" cx="321.06" cy="185.48" rx="121.31" ry="26.83" transform="translate(-49.71 182.34) rotate(-29.53)"/><ellipse class="cls-1" cx="217.24" cy="160.8" rx="26.83" ry="121.31" transform="translate(-15.65 23.64) rotate(-6.01)"/><ellipse class="cls-1" cx="178.45" cy="175.39" rx="26.83" ry="121.31" transform="translate(-58 93.55) rotate(-25.41)"/><ellipse class="cls-1" cx="156.07" cy="200.48" rx="26.83" ry="121.31" transform="translate(-97.43 183.51) rotate(-48.27)"/><ellipse class="cls-1" cx="339.14" cy="217.4" rx="121.31" ry="26.83" transform="translate(-31.05 58.54) rotate(-9.44)"/><ellipse class="cls-1" cx="149.6" cy="224.79" rx="26.83" ry="121.31" transform="translate(-101.75 323.45) rotate(-77.79)"/><path class="cls-2" d="M242.35,235.64c-.06.13-.11.27-.19.42l-.13-.13Z"/><path class="cls-2" d="M242,235.93l.32-.29c-.06.13-.11.27-.19.42Z"/><path class="cls-2" d="M246.9,260.45l.14.1c-.16,0-.34,0-.5,0A1.3,1.3,0,0,0,246.9,260.45Z"/><path class="cls-2" d="M250.63,260a14.3,14.3,0,0,1-2.72,1.17l-.18-.11a7.33,7.33,0,0,0,2.6-1Z"/><path class="cls-2" d="M247,260.55c-.16,0-.34,0-.5,0a1.3,1.3,0,0,0,.35-.11Z"/><path class="cls-2" d="M242.35,235.64c-.06.13-.11.27-.19.42l-.13-.13Z"/><path class="cls-2" d="M242,235.93l.32-.29c-.06.13-.11.27-.19.42Z"/><path class="cls-2" d="M242.85,261l.06,0-.21,0Z"/><path class="cls-2" d="M247,260.55c-.16,0-.34,0-.5,0a1.3,1.3,0,0,0,.35-.11Z"/><path class="cls-2" d="M242.92,261l-.21,0h.14Z"/><path class="cls-2" d="M242,235.93l.32-.29c-.06.13-.11.27-.19.42Z"/><path class="cls-2" d="M242.85,261l.06,0-.21,0Z"/><path class="cls-2" d="M246.9,260.45l.14.1c-.16,0-.34,0-.5,0A1.3,1.3,0,0,0,246.9,260.45Z"/><path class="cls-2" d="M250.63,260a14.3,14.3,0,0,1-2.72,1.17l-.18-.11a7.33,7.33,0,0,0,2.6-1Z"/><path class="cls-2" d="M251,262.83l-.84,0a4.14,4.14,0,0,0,.47-.22A2.6,2.6,0,0,0,251,262.83Z"/><path class="cls-2" d="M390.12,212.88c40.28-22.32,66-44.65,61.32-55.13-5.24-11.65-46.44-4.84-96.86,14.88,37.44-44.22,59-84.42,49.09-93.42S355.56,95.66,315,137.37c17.29-55.23,21.52-100.57,8.9-105-11.84-4.18-34.74,29.13-55,77.87-2.91-52.75-13.47-91.83-26-91.83-13.06,0-24,42.28-26.35,98.24-25.16-50.15-52.5-84.33-64.43-79C140.63,42.84,147,82.8,166,132.1,127.53,96,93,75,83.91,83.67c-9.69,9.22,12.77,48.85,51.19,92.12-54.12-21.4-99.38-29-104.73-16.68-4.48,10.33,20.39,31.65,59.53,53-41.78-.1-71.41,6.14-72.53,16.87-1.54,14.73,51.21,32.36,117.84,39.35,51.84,5.45,96.81,2.86,114.94-5.5a4.14,4.14,0,0,0,.47-.22,2.6,2.6,0,0,0,.37.18c17.87,8.52,63.12,11.18,115.35,5.69,66.62-7,119.39-24.62,117.83-39.35C482.87,216.67,442.89,210.26,390.12,212.88Zm-148,23.19-.13-.13.32-.29C242.29,235.77,242.24,235.92,242.16,236.06Zm.69,25,.06,0-.21,0Zm3.7-.45a1.3,1.3,0,0,0,.35-.11l.14.1C246.89,260.57,246.71,260.57,246.55,260.57Zm1.37.58-.18-.11a7.33,7.33,0,0,0,2.6-1l.29-.06A14.3,14.3,0,0,1,247.91,261.14Z"/><path class="cls-2" d="M242.85,261l.06,0-.21,0Z"/><path class="cls-2" d="M246.9,260.45l.14.1c-.16,0-.34,0-.5,0A1.3,1.3,0,0,0,246.9,260.45Z"/><path class="cls-2" d="M250.63,260a14.3,14.3,0,0,1-2.72,1.17l-.18-.11a7.33,7.33,0,0,0,2.6-1Z"/><path class="cls-2" d="M250.63,260a14.3,14.3,0,0,1-2.72,1.17l-.18-.11a7.33,7.33,0,0,0,2.6-1Z"/><path class="cls-3" d="M246.57,466.72v2.73a3,3,0,0,1-3,3H219.22a3,3,0,0,1-3-3v-2.73a3,3,0,0,1,3-3h4.51a2.16,2.16,0,0,0,2.16-2.16V430a1,1,0,0,0-1-1H223.7a2.41,2.41,0,0,1-2.4-2.4V341.71a1.36,1.36,0,0,1,1.35-1.35h17.07a1.36,1.36,0,0,1,1.35,1.35v84.87a2.41,2.41,0,0,1-2.4,2.4h-1.22a1,1,0,0,0-1,1V461.6a2.16,2.16,0,0,0,2.16,2.16h5.05A3,3,0,0,1,246.57,466.72Z"/><path class="cls-3" d="M286.35,466.72v2.73a3,3,0,0,1-3,3H259a3,3,0,0,1-3-3v-2.73a3,3,0,0,1,3-3h4.51a2.16,2.16,0,0,0,2.16-2.16V430a1,1,0,0,0-1-1h-1.14a2.41,2.41,0,0,1-2.4-2.4V341.71a1.36,1.36,0,0,1,1.35-1.35H279.5a1.36,1.36,0,0,1,1.35,1.35v84.87a2.41,2.41,0,0,1-2.4,2.4h-1.22a1,1,0,0,0-1,1V461.6a2.16,2.16,0,0,0,2.16,2.16h5.05A3,3,0,0,1,286.35,466.72Z"/><ellipse class="cls-4" cx="223.97" cy="75.87" rx="7.28" ry="12.61" transform="translate(-11.99 91.36) rotate(-22.47)"/><circle class="cls-4" cx="246.85" cy="74.48" r="5.15" transform="translate(-9.72 100) rotate(-22.47)"/><circle class="cls-4" cx="260.16" cy="84.35" r="5.15" transform="translate(-12.49 105.84) rotate(-22.47)"/><circle class="cls-4" cx="205" cy="107.17" r="5.15" transform="translate(-25.39 86.49) rotate(-22.47)"/><circle class="cls-4" cx="207.45" cy="90.77" r="5.15" transform="translate(-18.94 86.18) rotate(-22.47)"/><path class="cls-4" d="M332.39,314.36a81.91,81.91,0,1,1-163.81,0c0-26.41,14.31-47.8,31.92-64.87,7.28-7.06,20.59-22.61,25.78-31.32,2.89-4.85,8.2-15,9.29-20.58,7.08-35.8,6.59-65.86,14.53-65.86,7.7,0,7.38,28.41,14.47,62.71,1.12,5.41,5.68,15.65,8.5,20.41,4.75,8,14.62,24.13,21.43,30.47C314.29,263.73,332.39,285.34,332.39,314.36Z"/><path class="cls-4" d="M271,114.47c11.13,18.59-2.55,47.26-2.55,47.26s-31.73-1.47-42.87-20.06-10-39.75,2.55-47.26S259.83,95.88,271,114.47Z"/><path class="cls-5" d="M275.08,137.16c-.83,19.47-6.68,24.57-6.68,24.57s-10.89,2.39-24-5.4l7.12-24.06Z"/><path class="cls-6" d="M228.12,133.21s-2.08-8.6,1-10.54c2.85-1.78,9.5,2.84,9.5,2.84"/><path class="cls-6" d="M249.2,120.36s-2.08-8.6,1-10.54c2.85-1.78,9.5,2.84,9.5,2.84"/><circle class="cls-7" cx="46.69" cy="232.11" r="11.18"/><circle class="cls-7" cx="58.79" cy="171.48" r="11.18"/><circle class="cls-7" cx="313.36" cy="62.27" r="11.18"/><circle class="cls-7" cx="242.85" cy="47.62" r="11.18"/><circle class="cls-7" cx="164.28" cy="64.81" r="11.18"/><circle class="cls-7" cx="102.56" cy="103.25" r="11.18"/><circle class="cls-7" cx="455.92" cy="232.14" r="11.18"/><circle class="cls-7" cx="426.47" cy="168.98" r="11.18"/><circle class="cls-7" cx="386.73" cy="97.84" r="11.18"/><path class="cls-8" d="M184,315.17a71.36,71.36,0,0,1,31.12-59,63.81,63.81,0,0,0,0,117.95A71.36,71.36,0,0,1,184,315.17Z"/><rect class="cls-9" x="223.65" y="396.28" width="3.21" height="29.65" rx="1" ry="1"/><rect class="cls-9" x="263.12" y="397.87" width="3.21" height="28.07" rx="1" ry="1"/></g></svg>