<svg id="Layer_1" data-name="Layer 1" xmlns="http://www.w3.org/2000/svg" viewBox="0 0 500 500"><defs><style>.cls-1{fill:#aa79a5;}.cls-2{fill:#cd8cc3;}.cls-3{fill:#333;}.cls-4{fill:#bc66b0;}.cls-5{fill:#9e3e9b;}.cls-12,.cls-6{fill:none;}.cls-7,.cls-8{fill:#825c7c;}.cls-7{opacity:0.5;}.cls-8{opacity:0.51;}.cls-9{fill:#924f8b;}.cls-10{fill:#1a1a1a;}.cls-11{fill:#6d256e;}.cls-12{stroke:#1a1a1a;stroke-linecap:round;stroke-miterlimit:10;stroke-width:3.24px;}</style></defs><g id="pig"><path class="cls-1" d="M466.88,268.12c0,57.29-32.59,108.34-83.44,141.41v75.66a1.62,1.62,0,0,1-1.62,1.62H293.09a1.62,1.62,0,0,1-1.62-1.62V444.82a270.07,270.07,0,0,1-89.75,0v40.33a1.62,1.62,0,0,1-1.62,1.62H111.38a1.62,1.62,0,0,1-1.62-1.62V409.64c-50.94-33.06-83.62-84.17-83.62-141.52,0-99.67,98.67-180.46,220.38-180.46S466.88,168.45,466.88,268.12Z"/><path class="cls-2" d="M363.64,64.79C355,76.91,345.36,92.61,335.47,94.56c-5.33,1-13.74-5-17.59-7.77-4.6-3.27-14.85-8.34-15.07-15.17-.3-9.52,13.29-24.28,21-35.14,13.26-18.66,43.92-19.63,43.92-19.63S376.9,46.13,363.64,64.79Z"/><path class="cls-2" d="M80,136.08c13,7.23,28.49,17.24,38.25,14.74,5.27-1.35,10.23-10.45,12.53-14.58,2.74-4.93,9.81-13.92,7.06-20.18-3.83-8.72-22.44-16.19-34.09-22.67-20-11.13-48.1,1.19-48.1,1.19S60,124.95,80,136.08Z"/><circle class="cls-2" cx="246.6" cy="201.78" r="150.23"/><rect class="cls-3" x="109.76" y="463.85" width="91.97" height="22.81" rx="1" ry="1"/><rect class="cls-3" x="291.48" y="464.39" width="91.97" height="22.21" rx="1" ry="1"/><ellipse class="cls-4" cx="275.48" cy="281.61" rx="72.52" ry="50.75" transform="translate(-63.22 80.42) rotate(-14.92)"/><circle class="cls-5" cx="255.23" cy="290.33" r="8.72"/><circle class="cls-5" cx="297.3" cy="270.91" r="8.72"/><path class="cls-6" d="M422.41,157.77a46.4,46.4,0,0,1,9.36-10.29,49,49,0,0,1,15.91-8.42c10.94-3.8,17.71-6.14,24.33-2.81,5.77,2.91,11.58,10.21,10.29,18.71-1.36,9-10,15.53-17.78,15-8.5-.62-13.13-9.6-15.91-15-.67-1.3-12.68-25.51,1.87-44,7.23-9.17,17.22-12.12,21.52-13.1"/><path class="cls-7" d="M45.66,290.33c-3.41-47.73,10-91.46,27.45-125.29-28,26.85-44.5,68.3-41.27,113.54,2.36,33,14.82,62.51,33.63,84.84C57.37,341.47,47.52,316.42,45.66,290.33Z"/><path class="cls-8" d="M117.5,223.17c-3.41-47.73,10-91.46,27.45-125.29-28,26.85-44.5,68.3-41.27,113.54,2.36,33,14.82,62.51,33.63,84.84C129.22,274.31,119.37,249.26,117.5,223.17Z"/><path class="cls-7" d="M106.83,135.37c-8,1.9-21.46-10-32.69-18.81-6.45-5-11.24-12.77-14.71-20.49,2.33,10,7,23.86,15.68,30.66,9.49,7.41,20.81,17.67,27.94,15.11,2.22-.8,4.37-4.25,6.11-7.84A5.43,5.43,0,0,1,106.83,135.37Z"/><path class="cls-9" d="M218.63,297c-4.11-14.83-.29-30.2,9.22-43.19-15.17,13-22.74,29.85-18.38,45.54S229.09,326,249,330C234,323.31,222.75,311.8,218.63,297Z"/><rect class="cls-10" x="112.76" y="466.35" width="5.51" height="17.81" rx="1" ry="1"/><rect class="cls-10" x="294.57" y="466.58" width="5.51" height="17.81" rx="1" ry="1"/><path class="cls-11" d="M249.93,291.73a9,9,0,0,1,1.36-7.15c-2.24,2.16-3.36,4.94-2.72,7.54s2.9,4.41,5.85,5.08A8.37,8.37,0,0,1,249.93,291.73Z"/><path class="cls-11" d="M292.19,272.31a9,9,0,0,1,1.36-7.15c-2.24,2.16-3.36,4.94-2.72,7.54s2.9,4.41,5.85,5.08A8.37,8.37,0,0,1,292.19,272.31Z"/><path class="cls-12" d="M165.17,194.4c-2.56-8.75,7-18,11.52-21.78a4.73,4.73,0,0,1,4.93-.71c5.23,2.28,16.38,8.13,16.82,16.73"/><path class="cls-12" d="M284.92,160.42c-2.56-8.75,7-18,11.52-21.78a4.73,4.73,0,0,1,4.93-.71c5.23,2.28,16.38,8.13,16.82,16.73"/></g></svg>