<svg id="Layer_1" data-name="Layer 1" xmlns="http://www.w3.org/2000/svg" viewBox="0 0 500 500"><defs><style>.cls-1{fill:#fff;}.cls-2{fill:#e8bdd6;}.cls-3{fill:#eaeaea;}.cls-4{fill:gray;opacity:0.7;}.cls-5{fill:none;stroke:#1a1a1a;stroke-linecap:round;stroke-miterlimit:10;stroke-width:2.72px;}.cls-6{fill:#1a1a1a;}.cls-7{fill:#f0047f;opacity:0.21;}</style></defs><g id="rabbit"><ellipse class="cls-1" cx="353.87" cy="468.84" rx="30.73" ry="17.07"/><path class="cls-1" d="M267.18,86.62c18.78,47.73,24.85,90,13.55,94.47S245,150.45,226.26,102.72,250,12.67,260.33,19C269.52,24.7,248.4,38.89,267.18,86.62Z"/><path class="cls-1" d="M174.93,122.92c18.78,47.73,43.17,82.82,54.46,78.38s5.23-46.74-13.55-94.47-78.74-49.73-82-38C131,79.2,156.15,75.19,174.93,122.92Z"/><path class="cls-2" d="M185,123.35c7.16,30,18.72,52.91,25.82,51.22s7-27.38-.12-57.36S168.06,81,165.16,87.69C162.58,93.64,177.87,93.37,185,123.35Z"/><path class="cls-2" d="M258.52,92.71c15.19,26.82,22.36,51.48,16,55.08s-23.81-15.24-39-42.06,6.55-55.59,13.24-52.66C254.71,55.67,243.33,65.89,258.52,92.71Z"/><path class="cls-1" d="M387.31,435.58h0a2.1,2.1,0,0,0-3.65,1.08h0a2.1,2.1,0,0,1-4.1.26h0a2.1,2.1,0,0,0-3.75-.61h0a2.1,2.1,0,0,1-3.8-1.54h0a2.1,2.1,0,0,0-3.12-2.18h0a2.1,2.1,0,0,1-2.76-3h0a2.1,2.1,0,0,0-1.86-3.32h0a2.1,2.1,0,0,1-1.16-3.94h0a2.1,2.1,0,0,0-.24-3.8h0a2.1,2.1,0,0,1,.66-4.05h0a2.1,2.1,0,0,0,1.43-3.52h0a2.1,2.1,0,0,1,2.35-3.36h0a2.1,2.1,0,0,0,2.82-2.55h0a2.1,2.1,0,0,1,3.58-2h0a2.1,2.1,0,0,0,3.65-1.08h0a2.1,2.1,0,0,1,4.1-.26h0a2.1,2.1,0,0,0,3.75.61h0a2.1,2.1,0,0,1,3.8,1.54h0a2.1,2.1,0,0,0,3.12,2.18h0a2.1,2.1,0,0,1,2.76,3h0a2.1,2.1,0,0,0,1.86,3.32h0a2.1,2.1,0,0,1,1.16,3.94h0a2.1,2.1,0,0,0,.24,3.8h0a2.1,2.1,0,0,1-.66,4.05h0a2.1,2.1,0,0,0-1.43,3.52h0a2.1,2.1,0,0,1-2.35,3.36h0a2.1,2.1,0,0,0-2.82,2.55h0A2.1,2.1,0,0,1,387.31,435.58Z"/><ellipse class="cls-1" cx="234.64" cy="468.84" rx="30.73" ry="17.07"/><ellipse class="cls-3" cx="291.94" cy="376.49" rx="88.03" ry="109.01"/><path class="cls-4" d="M215.48,398c-5.17-27.88-3.49-53.63,3.29-70-9.69,13.07-13.12,40.54-7.5,70.83s18.67,54.7,32.41,63.42C231.45,449.35,220.65,425.91,215.48,398Z"/><ellipse class="cls-2" cx="291.94" cy="376.49" rx="64.32" ry="79.65"/><path class="cls-1" d="M404.31,218.87c17.38,44.16-24.5,102-93.56,129.15s-139.1,13.39-156.48-30.77c-9.77-24.82-.8-54,21.21-79.57a86.75,86.75,0,0,1,161.83-62.54l.11.28C369.61,179.69,394.82,194.75,404.31,218.87Z"/><path class="cls-5" d="M216.3,245.77c-6.56-10.22,6.15-26.65,6.15-26.65s20.56,1.41,23.91,13"/><path class="cls-5" d="M281.18,218.31c-6.56-10.22,6.15-26.65,6.15-26.65s20.56,1.41,23.91,13"/><path class="cls-5" d="M285.22,270.58a20.31,20.31,0,0,0,5.35,12.3c1.68,1.76,6.88,7.19,12.41,5.4,4.23-1.37,7.24-6.49,6.91-12.5"/><path class="cls-5" d="M282.73,271.56a20.31,20.31,0,0,1,4.46,12.65c0,2.43-.13,10-5.4,12.42-4,1.88-9.72.18-13.58-4.43"/><path class="cls-6" d="M290.13,267.91c-1.53,5.79-9.77,9-14.84,5.84l-6-3.78-6-3.78c-5.07-3.2-3.16-10.44,3.44-13l7.79-3.07,7.79-3.07c6.6-2.6,12.93,1.4,11.4,7.19l-1.81,6.84Z"/><circle class="cls-7" cx="345.22" cy="236.21" r="13.52" transform="translate(-62.52 142.81) rotate(-21.48)"/><circle class="cls-7" cx="219.77" cy="285.57" r="13.52" transform="translate(-89.3 100.3) rotate(-21.48)"/><path class="cls-4" d="M161.57,296.19c-.82-18.67,4.79-35.41,14-45.64-11.58,7.82-19.19,25.56-18.3,45.83s10,37.27,22.25,44C169.46,331,162.39,314.86,161.57,296.19Z"/><path class="cls-4" d="M209.3,469.11c-.19-4.23,2.69-8.1,7.22-10.52-5.63,1.91-9.47,6-9.27,10.61s4.39,8.36,10.17,9.76C212.69,476.94,209.49,473.34,209.3,469.11Z"/></g></svg>