<svg id="Layer_1" data-name="Layer 1" xmlns="http://www.w3.org/2000/svg" viewBox="0 0 500 500"><defs><style>.cls-1{fill:gray;}.cls-2{fill:#e5e5e5;}.cls-3{fill:#333;}.cls-4{fill:#ccc;}.cls-5{fill:none;stroke:#1a1a1a;stroke-linecap:round;stroke-miterlimit:10;stroke-width:3.25px;}.cls-6{fill:#999;}.cls-7,.cls-8{fill:#1a1a1a;}.cls-7{opacity:0.56;}</style></defs><g id="sheep"><rect class="cls-1" x="306.41" y="385.13" width="92.44" height="94.45" rx="1" ry="1"/><rect class="cls-1" x="123.75" y="385.13" width="92.44" height="94.45" rx="1" ry="1"/><path class="cls-2" d="M479.06,288.66a68.66,68.66,0,0,1-51.49,45.94,68.61,68.61,0,0,1-117.42,68,68.65,68.65,0,0,1-108.33-.58,68.64,68.64,0,0,1-120.3-62.29c.34-1,.68-2,1.05-3a68.64,68.64,0,0,1-12.49-136A68.64,68.64,0,0,1,149,119.2a53.86,53.86,0,0,1-.5-7.42A57.44,57.44,0,0,1,252.58,78.31,57.45,57.45,0,0,1,363.75,98.63a58.25,58.25,0,0,1-.64,8.59,69.68,69.68,0,0,1,10.18,2.49,68.6,68.6,0,0,1,43.91,86.53c-.28.84-.58,1.67-.88,2.51a68.66,68.66,0,0,1,62.73,89.91Z"/><rect class="cls-3" x="306.41" y="457.26" width="92.44" height="22.53" rx="1" ry="1"/><rect class="cls-3" x="123.75" y="456.92" width="92.44" height="22.53" rx="1" ry="1"/><path class="cls-3" d="M408.46,107.58c-15.94,9.48-32.41,14.92-46.68,16.24-.16,4.9-.85,12-2.23,23.25-2.1,17-7.33,21.09-10,39.4-1.9,12.82-2.89,19.46-5.65,28.75-4.77,15.94-7.91,16.62-11,30.32-2.6,11.64-.79,13.17-3.91,26.24-1.86,7.91-3.51,14.75-7.93,22.7-3.31,5.89-9.17,16.38-21.87,23.21-13,7-25.52,6-31.47,5.54a62,62,0,0,1-26.3-8.48c-9.16-5.5-14.06-11.9-23.84-24.67-7.19-9.38-6.25-9.78-13.23-19.13-9.84-13.16-14.18-15.63-24.45-27.81-8.58-10.15-15.63-18.51-21.6-30.53-8.82-17.73-10.42-33.61-11.4-44.43-.14-1.49-.27-2.92-.38-4.32-12.84,3-28.24,3.56-44.42,1-40.18-6.23-70-29-66.6-50.87s38.72-34.5,78.88-28.27c19.32,3,36.26,9.83,48.23,18.55C176,90.79,194.23,83.47,206.38,78.59c24.9-10,46.34-10.27,59.14-10.34s30.72,0,51.45,8c2.93,1.13,6.12,2.33,9.37,3.69,7.13-14.43,21.72-29.57,41.21-41.16,35-20.76,72.44-22.17,83.74-3.16S443.4,86.83,408.46,107.58Z"/><path class="cls-4" d="M334.36,78.23a23.43,23.43,0,0,1-45,12.57,23.48,23.48,0,0,1-36.27-4.93A23.46,23.46,0,0,1,222.57,95a23.43,23.43,0,0,1-29.65,15.15,23.43,23.43,0,1,1-27.15-28.82,23.11,23.11,0,0,1,11.75.75,23.47,23.47,0,0,1,33-15.23A23.43,23.43,0,0,1,253,62a23.43,23.43,0,0,1,42.2,3.74,23.42,23.42,0,0,1,39.14,12.53Z"/><path class="cls-5" d="M197.45,186.79c0-3.95,5.59-20.77,14.64-22.78,5.23-1.16,15.32,8.81,18.55,16.31"/><path class="cls-5" d="M283.13,169.82c0-3.95,5.59-20.77,14.64-22.78,5.23-1.16,15.32,8.81,18.55,16.31"/><path class="cls-6" d="M31,266.14c0-22.54,12.67-42.31,31.75-53.54-23.48,8-40.24,28.94-40.24,53.54s16.76,45.55,40.24,53.54C43.64,308.45,31,288.67,31,266.14Z"/><path class="cls-6" d="M102.06,392.91a59.08,59.08,0,0,1-9.8-56.23,53.24,53.24,0,0,0,62.58,78A59.08,59.08,0,0,1,102.06,392.91Z"/><path class="cls-7" d="M86.76,148.29c-18.45-10.11-42.93-19.84-44.17-39.4-3.25,21.46,19.09,37.89,40.63,45.86,24.72,9.15,40.53,9.15,63.56-.86C129.63,163.38,105.22,158.4,86.76,148.29Z"/><path class="cls-6" d="M153.74,103.9a21.27,21.27,0,0,1,9.92-18,19.16,19.16,0,0,0,0,36A21.27,21.27,0,0,1,153.74,103.9Z"/><rect class="cls-8" x="127.29" y="459.74" width="4.39" height="17.19" rx="1" ry="1"/><rect class="cls-8" x="309.89" y="459.93" width="4.39" height="17.19" rx="1" ry="1"/></g></svg>